<?xml version="1.0" encoding="UTF-8" standalone="no"?>
<svg width="352px" height="252px" viewBox="0 0 352 252" version="1.1" xmlns="http://www.w3.org/2000/svg" xmlns:xlink="http://www.w3.org/1999/xlink">
    <!-- Generator: sketchtool 47 (45396) - http://www.bohemiancoding.com/sketch -->
    <title>7E78586E-BF30-4C09-B5A4-6957411B70A8</title>
    <desc>Created with sketchtool.</desc>
    <defs></defs>
    <g id="Welcome" stroke="none" stroke-width="1" fill="none" fill-rule="evenodd">
        <g id="Desktop-HD" transform="translate(-212.000000, -2621.000000)">
            <g id="balloon" transform="translate(60.000000, 2507.000000)">
                <g id="color" transform="translate(154.000000, 117.000000)" fill-rule="nonzero">
                    <path d="M326.857358,222.524385 C338.298679,222.524385 347.59783,227.467907 347.59783,233.482525 C347.59783,239.497143 338.282264,244.424186 326.857358,244.424186 C321.884873,244.520443 316.956789,243.46901 312.453113,241.350963 C306.964839,245.711016 300.14726,248.038864 293.148962,247.942326 C285.179434,247.942326 277.99783,245.132757 273.015849,240.642392 C269.663477,242.404321 265.92435,243.293841 262.140849,243.229502 C252.899151,243.229502 245.397453,238.417807 245.397453,232.518538 C245.397453,226.619269 252.899151,221.807575 262.140849,221.807575 C263.514996,221.80792 264.887042,221.915352 266.244623,222.128904 C268.296509,211.41794 279.540849,203.285847 293.12434,203.285847 C307.126415,203.285847 318.674434,211.978206 320.209245,223.158804 C322.402121,222.749583 324.626951,222.537271 326.857358,222.524385 L326.857358,222.524385 Z" id="Shape" fill="#F7F7F7"></path>
                    <path d="M250.633868,76.2950166 C250.635409,85.4558759 248.966391,94.5396332 245.70934,103.097143 L244.740849,105.568904 C240.477202,115.94535 234.586246,125.569679 227.291604,134.076545 C210.146038,154.254352 190.956792,163.012625 190.956792,172.619535 L185.367453,172.619535 C185.367453,159.436811 212.821698,147.836013 225.469528,106.038538 C225.518774,105.881993 225.559811,105.725449 225.609057,105.568904 C225.609057,105.568904 225.609057,105.519468 225.609057,105.494751 C225.682925,105.206379 225.781415,104.926246 225.855283,104.670831 C226.011226,104.176478 226.142547,103.682126 226.282075,103.171296 C228.656117,94.4375159 229.845992,85.4222262 229.819528,76.3691694 C229.819528,34.6952824 205.434906,0.89807309 175.378868,0.89807309 C195.318147,0.878396874 214.44855,8.81092895 228.561602,22.9506008 C242.674655,37.0902726 250.614287,56.2788344 250.633868,76.2950166 Z" id="Shape" fill="#FDEA5C"></path>
                    <path d="M229.901604,76.2950166 C229.928067,85.3480734 228.738193,94.3633631 226.364151,103.097143 C226.224623,103.607973 226.076887,104.102326 225.937358,104.596678 C225.937358,104.753223 225.847075,104.909767 225.79783,105.066312 L225.666509,105.535947 C225.617264,105.692492 225.576226,105.849037 225.526981,106.005581 C212.879151,147.803056 185.424906,159.395615 185.424906,172.586578 L181.370377,172.586578 C181.370377,159.403854 195.093396,147.803056 201.692264,106.005581 C201.741509,105.692492 201.782547,105.379402 201.831792,105.066312 C201.938491,104.415415 202.036981,103.764518 202.127264,103.105382 C203.377096,94.2267132 203.996958,85.2701222 203.98217,76.3032558 C203.98217,34.6293688 191.211226,0.832159468 175.469151,0.832159468 C205.516981,0.823920266 229.901604,34.6128904 229.901604,76.2950166 Z" id="Shape" fill="#73FD73"></path>
                    <path d="M222.875943,229.676013 C226.749906,229.676013 229.901604,232.057143 229.901604,234.98206 C229.901604,237.906977 226.749906,240.304585 222.875943,240.304585 C219.001981,240.304585 215.866698,237.923455 215.866698,234.98206 C215.866698,232.040664 218.993774,229.676013 222.875943,229.676013 Z" id="Shape" fill="#F7F7F7"></path>
                    <path d="M203.973962,76.2950166 C203.983313,85.2622742 203.357965,94.2188671 202.102642,103.097143 C202.012358,103.764518 201.90566,104.415415 201.80717,105.058073 C201.757925,105.371163 201.716887,105.684252 201.667642,105.997342 C195.101604,147.794817 181.345755,159.387375 181.345755,172.578339 L175.444528,172.578339 L175.444528,0.823920266 C191.203019,0.823920266 203.973962,34.6128904 203.973962,76.2950166 Z" id="Shape" fill="#11D8EC"></path>
                    <polygon id="Shape" fill="#99524D" points="191.014245 188.191628 188.42066 209.012093 162.501226 209.012093 159.907642 188.191628 163.798019 188.191628 172.128679 188.191628 178.793208 188.191628 187.132075 188.191628"></polygon>
                    <path d="M175.460943,178.032691 C175.460943,182.259402 182.683585,183.116279 178.793208,188.191628 L172.128679,188.191628 C168.238302,183.124518 175.460943,182.259402 175.460943,178.032691 Z" id="Shape" fill="#FF9915"></path>
                    <path d="M175.460943,0.823920266 L175.460943,172.578339 L169.559717,172.578339 C169.559717,159.082525 155.196509,147.267508 148.794623,103.097143 C147.538341,94.2191567 146.918446,85.2621022 146.939717,76.2950166 C146.939717,34.6128904 159.71066,0.823920266 175.460943,0.823920266 Z" id="Shape" fill="#FE7284"></path>
                    <path d="M169.559717,172.578339 L165.455943,172.578339 C165.455943,159.346179 137.86217,147.737143 125.238962,105.667774 L124.836792,104.300066 L124.483868,103.088904 C122.118851,94.3534807 120.93185,85.3390494 120.954623,76.2867774 C120.954623,34.6128904 145.32283,0.815681063 175.395283,0.815681063 C159.645,0.815681063 146.882264,34.596412 146.882264,76.2867774 C146.860993,85.253863 147.480888,94.2109175 148.73717,103.088904 C155.196509,147.275748 169.559717,159.090764 169.559717,172.578339 Z" id="Shape" fill="#FD9241"></path>
                    <path d="M123.663113,134.158937 C116.360268,125.662578 110.460858,116.046363 106.189245,105.676013 L105.631132,104.308306 L105.155094,103.097143 C96.405823,79.900205 99.5600568,53.869378 113.593906,33.454476 C127.627756,13.039574 150.752231,0.843022794 175.460943,0.823920266 C145.388491,0.823920266 121.020283,34.6046512 121.020283,76.2950166 C120.997511,85.3472886 122.184511,94.3617199 124.549528,103.097143 L124.902453,104.308306 C125.017358,104.761462 125.165094,105.222857 125.304623,105.676013 C137.903208,147.745382 165.521604,159.346179 165.521604,172.586578 L159.924057,172.586578 C159.891226,162.996146 140.784057,154.262591 123.663113,134.158937 Z" id="Shape" fill="#FDEA5C"></path>
                    <path d="M109.505094,216.122525 C118.878113,216.122525 126.461887,220.637608 126.461887,226.207309 C126.461887,231.77701 118.878113,236.292093 109.505094,236.292093 C104.268679,236.292093 99.5903774,234.883189 96.479717,232.658605 C85.7043604,243.698552 68.3129243,244.646218 56.4104717,234.841993 C49.6594052,241.6678 38.8314941,242.182849 31.4677358,236.028439 C28.4227358,238.730897 23.2601887,240.518804 17.3671698,240.518804 C7.99415094,240.518804 0.402169811,236.003721 0.402169811,230.43402 C0.402169811,224.864319 8.00235849,220.316279 17.3753774,220.316279 C19.9014375,220.305122 22.4162402,220.654669 24.8442453,221.354419 C25.0629799,211.278604 33.2635337,203.22578 43.3030189,203.228173 C44.4516061,203.222315 45.5979799,203.329943 46.725566,203.549502 C50.7831736,189.224287 64.7479646,180.101283 79.4388051,182.178396 C94.1296455,184.255508 105.040974,196.895705 104.999151,211.788704 C104.998956,213.383649 104.872711,214.976065 104.621604,216.550963 C106.234163,216.267683 107.86803,216.12434 109.505094,216.122525 Z" id="Shape" fill="#F7F7F7"></path>
                </g>
                <g id="shadows" transform="translate(155.000000, 119.000000)" fill-rule="nonzero">
                    <g id="Group" opacity="0.07" transform="translate(0.000000, 217.360000)" fill="#000000">
                        <path d="M215.481568,17.1500333 C216.724601,17.7975446 218.107693,18.128388 219.508646,18.1133333 C223.387791,18.1133333 226.543705,15.7339 226.543705,12.7946 C226.541743,12.1970113 226.409934,11.607015 226.157435,11.0656 C227.882549,11.8360773 229.033728,13.5071829 229.14076,15.3963333 C229.14076,18.3356333 225.984846,20.7150667 222.105701,20.7150667 C219.04019,20.7150667 216.426698,19.266 215.481568,17.1500333 Z" id="Shape"></path>
                        <path d="M0.649263658,15.0505333 C12.2538242,21.9912333 27.1786698,11.9465667 29.627791,8.151 C32.7508314,15.5198333 45.0046556,19.3154 53.691639,2.5688 C63.0525416,17.5205333 91.1270309,12.3911667 95.1376722,1.00446667 C101.819335,12.8357667 124.790119,14.0131333 122.10266,0.5928 C131.225226,10.6045333 114.845701,21.1761333 94.9815202,12.6628667 C82.4564846,26.0091 59.5021378,21.9912333 54.8257957,13.9555 C48.3660333,24.6588333 32.7754869,21.2337667 29.8907838,16.0303 C22.0585273,24.206 2.53952494,19.6694333 0.649263658,15.0505333 Z" id="Shape"></path>
                        <path d="M244.928551,15.8903333 C252.596437,21.8430333 269.123895,17.0677 272.411306,13.4862 C279.487458,22.0571 304.545748,24.2965667 311.317815,13.4862 C320.917055,22.9627667 339.655297,21.7195333 345.112399,9.6824 C350.585938,24.9799333 322.470356,27.2111667 311.210974,21.3490333 C299.442043,34.2095 275.254917,25.2516333 271.762043,20.6492 C261.045083,28.899 248.018717,20.8550333 244.928551,15.8903333 Z" id="Shape"></path>
                    </g>
                    <ellipse id="Oval" fill="#FFFFFF" transform="translate(220.024684, 230.835192) rotate(-10.400000) translate(-220.024684, -230.835192) " cx="220.024684" cy="230.835192" rx="1.96422803" ry="1.39143333"></ellipse>
                    <ellipse id="Oval" fill="#FFFFFF" cx="52.6561045" cy="200.621633" rx="2.59705463" ry="2.60173333"></ellipse>
                    <ellipse id="Oval" fill="#FFFFFF" transform="translate(34.512017, 209.791861) rotate(-47.130000) translate(-34.512017, -209.791861) " cx="34.5120175" cy="209.791861" rx="5.89268409" ry="3.6803"></ellipse>
                    <ellipse id="Oval" fill="#FFFFFF" transform="translate(9.611637, 224.080845) rotate(-12.900000) translate(-9.611637, -224.080845) " cx="9.61163724" cy="224.080845" rx="5.19410926" ry="2.78286667"></ellipse>
                    <ellipse id="Oval" fill="#FFFFFF" cx="110.128266" cy="217.639933" rx="3.13125891" ry="1.52316667"></ellipse>
                    <ellipse id="Oval" fill="#FFFFFF" transform="translate(66.242158, 191.980703) rotate(-33.610000) translate(-66.242158, -191.980703) " cx="66.2421583" cy="191.980703" rx="10.7169596" ry="7.4841"></ellipse>
                    <ellipse id="Oval" fill="#FFFFFF" transform="translate(254.818371, 225.727813) rotate(-12.900000) translate(-254.818371, -225.727813) " cx="254.818371" cy="225.727813" rx="5.19410926" ry="2.78286667"></ellipse>
                    <ellipse id="Oval" fill="#FFFFFF" transform="translate(282.726597, 211.690827) rotate(-16.410000) translate(-282.726597, -211.690827) " cx="282.726597" cy="211.690827" rx="9.95263658" ry="6.0515"></ellipse>
                    <ellipse id="Oval" fill="#FFFFFF" opacity="0.5" transform="translate(327.263779, 225.726750) rotate(-1.210000) translate(-327.263779, -225.726750) " cx="327.263779" cy="225.72675" rx="5.19410926" ry="2.78286667"></ellipse>
                    <path d="M238.575629,34.9093333 C258.579525,106.193533 150.242898,158.5246 106.988789,112.0145 C128.35696,146.4463 159.036722,160.591167 158.461425,169.9854 L189.609644,169.9854 C190.324656,150.8182 280.054537,119.301 238.575629,34.9093333 Z" id="Shape" fill="#000000" opacity="0.1"></path>
                    <ellipse id="Oval" fill="#FFFFFF" opacity="0.5" transform="translate(146.924112, 35.992246) rotate(-41.720000) translate(-146.924112, -35.992246) " cx="146.924112" cy="35.9922465" rx="28.896342" ry="21.736"></ellipse>
                    <ellipse id="Oval" fill="#FFFFFF" opacity="0.5" cx="118.297482" cy="70.9795667" rx="8.16921615" ry="8.18393333"></ellipse>
                    <rect id="Rectangle-path" fill="#FFFFFF" opacity="0.25" x="158.477862" y="185.5958" width="30.5893587" height="4.70123333"></rect>
                    <path d="M161.61734,198.9585 C162.488504,203.560933 185.697625,202.1942 187.760475,189.2514 C186.938622,198.308067 187.037245,206.401433 187.037245,206.401433 L161.066698,206.401433 L161.61734,198.9585 Z" id="Shape" fill="#000000" opacity="0.15"></path>
                    <ellipse id="Oval" fill="#FFFFFF" cx="174.051971" cy="183.4469" rx="1.48755344" ry="2.14066667"></ellipse>
                </g>
                <g id="Layer_14" transform="translate(313.000000, 303.000000)" fill-rule="nonzero" fill="#354A5E" opacity="0.6">
                    <path d="M31.96875,5.02714286 C31.6469691,4.70865562 31.1272809,4.70865562 30.8055,5.02714286 L25.43475,10.3746429 L21.39225,6.34964286 L26.0205,1.74142857 C26.3008159,1.41551834 26.2819691,0.929697645 25.9772397,0.626287354 C25.6725102,0.322877064 25.1845772,0.304111918 24.85725,0.583214286 L20.229,5.19142857 L15.60075,0.583214286 C15.2789691,0.264727047 14.7592809,0.264727047 14.4375,0.583214286 L9.80925,5.19142857 L5.148,0.583214286 C4.82067277,0.304111918 4.33273981,0.322877064 4.02801034,0.626287354 C3.72328088,0.929697645 3.70443414,1.41551834 3.98475,1.74142857 L8.613,6.34964286 L4.5705,10.3746429 L2.16975,7.98428571 C1.84242277,7.70518335 1.35448981,7.72394849 1.04976034,8.02735878 C0.745030878,8.33076907 0.726184143,8.81658977 1.0065,9.1425 L3.40725,11.5328571 L1.67475,13.2578571 C1.43931467,13.458606 1.3367624,13.7738115 1.40925664,14.0738799 C1.48175088,14.3739482 1.71705637,14.6082351 2.01842935,14.6804155 C2.31980232,14.7525959 2.63637835,14.6504876 2.838,14.4160714 L4.5705,12.6910714 L8.613,16.7160714 L3.98475,21.3242857 C3.77253419,21.5311808 3.68729581,21.8350853 3.76114332,22.1215215 C3.83499084,22.4079577 4.05670506,22.6334091 4.34276837,22.7129502 C4.62883168,22.7924913 4.93578425,22.714038 5.148,22.5071429 L9.77625,17.8989286 L14.4045,22.5071429 C14.7262809,22.8256301 15.2459691,22.8256301 15.56775,22.5071429 L20.196,17.8989286 L24.82425,22.5071429 C25.1515772,22.7862452 25.6395102,22.7674801 25.9442397,22.4640698 C26.2489691,22.1606595 26.2678159,21.6748388 25.9875,21.3489286 L21.39225,16.7571429 L25.43475,12.7321429 L29.4855,16.7571429 C29.8128272,17.0362452 30.3007602,17.0174801 30.6054897,16.7140698 C30.9102191,16.4106595 30.9290659,15.9248388 30.64875,15.5989286 L26.598,11.5410714 L31.96875,6.19357143 C32.1249329,6.03933458 32.2127836,5.82938083 32.2127836,5.61035714 C32.2127836,5.39133345 32.1249329,5.18137971 31.96875,5.02714286 Z M15.048,2.32464286 L19.0905,6.34964286 L15.048,10.3746429 L11.0055,6.34964286 L15.048,2.32464286 Z M5.7915,11.5410714 L9.834,7.51607143 L13.8765,11.5410714 L9.834,15.5660714 L5.7915,11.5410714 Z M15.048,20.7575 L11.0055,16.7325 L15.048,12.7075 L19.0905,16.7325 L15.048,20.7575 Z M20.262,15.5660714 L16.2195,11.5410714 L20.262,7.51607143 L24.3045,11.5410714 L20.262,15.5660714 Z" id="Shape"></path>
                </g>
                <g id="lines">
                    <path d="M399.644583,219.675768 C382.74419,263.770459 344.843601,275.595928 344.843601,289.041437 L313.704812,289.041437 C313.704812,275.571257 275.804223,263.770459 258.90383,219.675768 L259.939051,222.249741 C259.741866,221.797445 259.561113,221.336926 259.38036,220.884631 C259.199607,220.432335 259.059935,220.062275 258.90383,219.675768 C247.015233,188.31935 257.267737,152.872621 284.053836,132.722824 C310.839935,112.573026 347.708478,112.573026 374.494576,132.722824 C401.280675,152.872621 411.53318,188.31935 399.644583,219.675768 C399.398101,220.341876 399.135188,220.991537 398.864059,221.632974 C398.732602,221.945469 398.617578,222.257964 398.477905,222.570459 L399.644583,219.675768 Z" id="Shape" stroke="#354A5E" stroke-width="6" stroke-linecap="round" stroke-linejoin="round"></path>
                    <polygon id="Shape" stroke="#354A5E" stroke-width="6" stroke-linecap="round" stroke-linejoin="round" points="342.255548 325.397764 316.309296 325.397764 313.713028 304.616846 344.851817 304.616846"></polygon>
                    <path d="M340.957414,304.616846 L340.957414,289.033214" id="Shape" stroke="#354A5E" stroke-width="3" stroke-linecap="round" stroke-linejoin="round"></path>
                    <path d="M317.60743,304.616846 L317.60743,289.033214" id="Shape" stroke="#354A5E" stroke-width="3" stroke-linecap="round" stroke-linejoin="round"></path>
                    <path d="M344.851817,304.616846 L381.207791,250.55521" id="Shape" stroke="#354A5E" stroke-width="3" stroke-linecap="round" stroke-linejoin="round"></path>
                    <path d="M313.713028,304.616846 L277.357054,250.55521" id="Shape" stroke="#354A5E" stroke-width="3" stroke-linecap="round" stroke-linejoin="round"></path>
                    <g id="Group" stroke-linecap="round" stroke-linejoin="round" transform="translate(0.197185, 0.328942)"></g>
                    <path d="M332.609918,304.600399 C336.504321,299.526467 329.282422,298.679441 329.282422,294.460758 C329.282422,298.679441 322.060524,299.534691 325.954926,304.600399" id="Shape"></path>
                    <path d="M339.256694,289.02499 C339.256694,275.867305 366.739345,264.288543 379.392046,222.570459 C379.441342,222.414212 379.498854,222.257964 379.531718,222.101717" id="Shape" stroke="#354A5E" stroke-width="2" stroke-linecap="round" stroke-linejoin="round"></path>
                    <path d="M380.230082,219.675768 C380.049329,220.341876 379.868576,220.991537 379.671391,221.632974 C379.622095,221.789222 379.564583,221.945469 379.531718,222.101717 L380.230082,219.634651" id="Shape" stroke="#354A5E" stroke-width="3" stroke-linecap="round" stroke-linejoin="round"></path>
                    <g id="Group" stroke-linecap="round" stroke-linejoin="round" transform="translate(0.197185, 0.328942)"></g>
                    <path d="M379.350966,163.155289 C384.933453,181.545798 385.23808,201.136729 380.230082,219.692216 C380.049329,220.358323 379.868576,221.007984 379.671391,221.649421 C379.622095,221.805669 379.564583,221.961916 379.531718,222.118164 C379.498854,222.274411 379.441342,222.430659 379.392046,222.586906 C366.739345,264.30499 339.256694,275.875529 339.256694,289.041437" id="Shape" stroke="#354A5E" stroke-width="3" stroke-linecap="round" stroke-linejoin="round"></path>
                    <path d="M372.474141,147.004232 C362.524517,129.118004 346.85653,117.596806 329.274206,117.596806 C299.170638,117.596806 274.777218,151.313373 274.777218,192.924551 C274.754422,201.959629 275.94265,210.956938 278.310115,219.675768 L278.663404,220.884631 L279.06599,222.249741" id="Shape" stroke="#354A5E" stroke-width="3" stroke-linecap="round" stroke-linejoin="round"></path>
                    <path d="M372.474141,147.004232 C362.524517,129.118004 346.85653,117.596806 329.274206,117.596806 C299.170638,117.596806 274.777218,151.313373 274.777218,192.924551 C274.754422,201.959629 275.94265,210.956938 278.310115,219.675768 L278.663404,220.884631 C278.794861,221.336926 278.926318,221.797445 279.06599,222.249741 C291.67761,264.239202 319.324583,275.817964 319.324583,289.033214" id="Shape" stroke="#354A5E" stroke-width="3" stroke-linecap="round" stroke-linejoin="round"></path>
                    <path d="M335.181538,289.02499 C335.181538,275.867305 348.918756,264.288543 355.524452,222.570459 C355.573748,222.257964 355.614828,221.945469 355.664124,221.632974 C355.738069,221.139561 355.820229,220.662595 355.885957,220.152735 C355.820229,220.662595 355.746285,221.139561 355.664124,221.632974 C355.614828,221.945469 355.573748,222.257964 355.524452,222.570459 C348.95162,264.288543 335.181538,275.859082 335.181538,289.02499" id="Shape" stroke="#354A5E" stroke-width="3" stroke-linecap="round" stroke-linejoin="round"></path>
                    <path d="M323.37509,289.02499 C323.37509,275.55481 308.997021,263.762236 302.588511,219.675768 C301.330929,210.814645 300.710393,201.874604 300.731686,192.924551 C300.731686,151.32982 313.515843,117.596806 329.274206,117.596806 C345.03257,117.596806 357.816727,151.313373 357.816727,192.924551 C357.834535,199.821304 357.486232,206.714133 356.77329,213.573892" id="Shape" stroke="#354A5E" stroke-width="3" stroke-linecap="round" stroke-linejoin="round"></path>
                    <path d="M329.282422,117.596806 L329.282422,289.033214" id="Shape" stroke="#354A5E" stroke-width="3" stroke-linecap="round" stroke-linejoin="round"></path>
                    <g id="Group" stroke-linecap="round" stroke-linejoin="round" transform="translate(0.197185, 0.328942)"></g>
                    <path d="M206.29653,308.934212 C212.570024,301.499421 222.081139,297.607593 231.761603,298.514224 C241.442067,299.420856 250.066743,305.011206 254.853322,313.481836" id="Shape" stroke="#5D7A91" stroke-width="3" stroke-linecap="round" stroke-linejoin="round"></path>
                    <path d="M180.333846,330.093413 C183.408962,323.689866 189.881174,319.619451 196.979542,319.62483 C198.129317,319.618983 199.276877,319.726407 200.40563,319.945549 C201.027963,317.760083 201.90199,315.654429 203.010115,313.670978" id="Shape" stroke="#5D7A91" stroke-width="3" stroke-linecap="round" stroke-linejoin="round"></path>
                    <path d="M258.328707,323.300758 C258.839333,326.484824 258.839333,329.730027 258.328707,332.914092 C259.956449,332.628988 261.605853,332.485908 263.258331,332.486467 C272.641047,332.486467 280.232668,336.992974 280.232668,342.552096 C280.232668,348.111218 272.641047,352.617725 263.258331,352.617725 C258.016498,352.617725 253.333355,351.211497 250.219476,348.991138 C239.432971,360.010115 222.02354,360.955981 210.108773,351.170379 C203.350721,357.983221 192.511606,358.497292 185.140229,352.354571 C182.092079,355.051896 176.92419,356.836407 171.025074,356.836407 C161.642357,356.836407 154.04252,352.3299 154.04252,346.770778 C154.04252,341.211657 161.650573,336.672255 171.03329,336.672255 C173.561963,336.66112 176.079368,337.010002 178.509885,337.708423 C178.525709,336.815379 178.608098,335.924762 178.756367,335.043992" id="Shape" stroke="#5D7A91" stroke-width="3" stroke-linecap="round" stroke-linejoin="round"></path>
                    <ellipse id="Oval" stroke="#5D7A91" stroke-width="3" stroke-linecap="round" stroke-linejoin="round" cx="376.746481" cy="351.318403" rx="7.02471358" ry="5.30419162"></ellipse>
                    <path d="M471.436334,331.935489 C472.863394,334.22113 473.792858,336.782295 474.164059,339.451816 C476.360685,339.05992 478.587805,338.864525 480.819051,338.867944 C492.272209,338.867944 501.580982,343.802076 501.580982,349.805269 C501.580982,355.808463 492.272209,360.726148 480.835483,360.726148 C475.857852,360.822222 470.924669,359.772786 466.416334,357.658762 C460.922381,362.010533 454.097748,364.33396 447.092209,364.237605 C439.114435,364.237605 431.925401,361.433373 426.938265,356.951537 C423.582424,358.710119 419.839429,359.59795 416.052013,359.533733 C406.800753,359.533733 399.291293,354.731178 399.291293,348.843114 C399.291293,342.95505 406.800753,338.152495 416.052013,338.152495 C417.427582,338.152839 418.801048,338.260068 420.160033,338.473214 C422.214043,327.782595 433.470016,319.665948 447.067561,319.665948 C455.135712,319.665948 462.390475,322.535968 467.37761,327.067146" id="Shape" stroke="#5D7A91" stroke-width="3" stroke-linecap="round" stroke-linejoin="round"></path>
                </g>
            </g>
        </g>
    </g>
</svg>