<svg width="88" height="88" viewBox="0 0 88 88" version="1.1" xmlns="http://www.w3.org/2000/svg" xmlns:xlink="http://www.w3.org/1999/xlink">
<title>Group</title>
<desc>Created using Figma</desc>
<g id="Canvas" transform="translate(-5245 7422)">
<g id="Group">
<g id="Rectangle">
<use xlink:href="#path0_fill" transform="translate(5258 -7404)" fill="#417CF0"/>
</g>
<g id="Subtract">
<use xlink:href="#path1_fill" transform="translate(5245 -7422)" fill="#FFFFFF"/>
<use xlink:href="#path2_fill" transform="translate(5245 -7422)" fill="#FFFFFF"/>
<use xlink:href="#path3_fill" transform="translate(5245 -7422)" fill="#FFFFFF"/>
</g>
</g>
</g>
<defs>
<path id="path0_fill" d="M 0 0L 63 0L 63 47L 0 47L 0 0Z"/>
<path id="path1_fill" d="M 23.2969 51.209C 23.2969 51.209 35.8828 51.8516 41.2285 57.1323L 41.2285 35.394C 41.2285 35.394 37.3818 28.7441 23.2969 27.7939L 23.2969 51.209Z"/>
<path id="path2_fill" d="M 46.7715 57.1323C 52.1172 51.8516 64.7031 51.209 64.7031 51.209L 64.7031 27.7939C 50.6182 28.7441 46.7715 35.394 46.7715 35.394L 46.7715 57.1323Z"/>
<path id="path3_fill" fill-rule="evenodd" d="M 44 88C 68.3003 88 88 68.3003 88 44C 88 19.6997 68.3003 0 44 0C 19.6997 0 0 19.6997 0 44C 0 68.3003 19.6997 88 44 88ZM 69.9072 53.6118L 69.9072 31.2031L 72 31.0352L 72 58.3618C 51.8628 58.3618 44 63 44 63C 44 63 36.1372 58.3618 16 58.3618L 16 31.0352L 18.0928 31.2031L 18.0928 53.6118L 20.6948 53.6118L 20.6948 25C 20.6948 25 38.9092 25.6704 44 34.5557C 49.0908 25.6704 67.3052 25 67.3052 25L 67.3052 53.6118L 69.9072 53.6118Z"/>
</defs>
</svg>
