<svg xmlns="http://www.w3.org/2000/svg" viewBox="20 0 80 60" fill="#966195">
  <path d="M73 16.2h-2.4v-2.1c0-1.4-1-2.1-2.1-2.1h-5.1v-.2c-.1-.4-.4-.8-.9-.8h-9.2c-.5 0-.8.4-.8.8v.2H48c-1.6 0-2.9 1.3-3 2.8v32.1c0 1.7 1.3 3 3 3h22.6c2-.1 4.2-1.4 4.2-4.7V17.9c0-.9-.8-1.7-1.8-1.7zm-18.8-3.5h7.4v15.7l-3.2-2.7c-.1 0-.1-.1-.2-.1h-.6c-.1 0-.2.1-.3.1l-3.2 2.5V12.8l.1-.1zm-7.5 2.4c0-.1 0-.1 0 0 0-.8.6-1.3 1.2-1.3h4.4V30c0 .3.2.7.5.8.3.1.7.1.9-.1l4-3.1 4.1 3.4s.1.1.2.1h.6c.3-.1.5-.5.5-.8V13.7h5.1c.4 0 .4.2.4.4v29.3c0 .6-.2.7-.5.8H47.2c-.1 0-.1 0-.2.1l-.3-29.2zM73 45.4c0 2.3-1.4 2.8-2.5 2.9H48c-.7 0-1.2-.6-1.2-1.2 0-.2.1-.5.2-.7 0 0 0-.1.1-.1 0 0 .1 0 .1-.1 0 0 .1 0 .2-.1h20.9c1 0 2.1-.7 2.1-2.2v-26H73v27.5z"/>
</svg>
