<svg width="26" height="26" viewBox="0 0 26 26" version="1.1" xmlns="http://www.w3.org/2000/svg" xmlns:xlink="http://www.w3.org/1999/xlink">
<title>Cog</title>
<desc>Created using Figma</desc>
<g id="Canvas" transform="translate(-1928 7276)">
<g id="Cog">
<g id="Vector">
<use xlink:href="#path0_fill" transform="translate(1928 -7276)" fill="#148DFC"/>
<use xlink:href="#path1_fill" transform="translate(1928 -7276)" fill="#148DFC"/>
<use xlink:href="#path2_fill" transform="translate(1928 -7276)" fill="#148DFC"/>
<use xlink:href="#path3_fill" transform="translate(1928 -7276)" fill="#148DFC"/>
<use xlink:href="#path4_fill" transform="translate(1928 -7276)" fill="#148DFC"/>
<use xlink:href="#path5_fill" transform="translate(1928 -7276)" fill="#148DFC"/>
<use xlink:href="#path6_fill" transform="translate(1928 -7276)" fill="#148DFC"/>
<use xlink:href="#path7_fill" transform="translate(1928 -7276)" fill="#148DFC"/>
<use xlink:href="#path8_fill" transform="translate(1928 -7276)" fill="#148DFC"/>
</g>
</g>
</g>
<defs>
<path id="path0_fill" fill-rule="evenodd" d="M 13.0006 22.8794C 18.4572 22.8794 22.8806 18.4561 22.8806 12.9995C 22.8806 7.54297 18.4572 3.11963 13.0006 3.11963C 7.54407 3.11963 3.12061 7.54297 3.12061 12.9995C 3.12061 18.4561 7.54407 22.8794 13.0006 22.8794ZM 13 17.9995C 15.7615 17.9995 18 15.7607 18 12.9995C 18 10.2383 15.7615 7.99951 13 7.99951C 10.2385 7.99951 8 10.2383 8 12.9995C 8 15.7607 10.2385 17.9995 13 17.9995Z"/>
<path id="path1_fill" d="M 10.1592 1.20583C 10.2994 0.50469 10.915 0 11.6301 0L 14.3706 0C 15.0857 0 15.7013 0.50469 15.8415 1.20583L 16.4829 4.41281C 16.5813 4.9046 16.4273 5.41301 16.0727 5.76765L 14.9997 6.84066C 14.7184 7.12197 14.3369 7.28 13.939 7.28L 12.0617 7.28C 11.6638 7.28 11.2823 7.12197 11.001 6.84066L 9.928 5.76765C 9.57336 5.41301 9.41943 4.9046 9.51779 4.41281L 10.1592 1.20583Z"/>
<path id="path2_fill" d="M 15.8417 24.7942C 15.7014 25.4953 15.0858 26 14.3708 26L 11.6302 26C 10.9152 26 10.2996 25.4953 10.1593 24.7942L 9.51794 21.5872C 9.41958 21.0954 9.57352 20.587 9.92815 20.2324L 11.0012 19.1593C 11.2825 18.878 11.664 18.72 12.0618 18.72L 13.9392 18.72C 14.337 18.72 14.7185 18.878 14.9998 19.1593L 16.0729 20.2324C 16.4275 20.587 16.5814 21.0954 16.4831 21.5872L 15.8417 24.7942Z"/>
<path id="path3_fill" d="M 24.7942 10.1582C 25.4953 10.2984 26 10.9141 26 11.6291L 26 14.3697C 26 15.0847 25.4953 15.7003 24.7942 15.8405L 21.5872 16.4819C 21.0954 16.5803 20.587 16.4264 20.2324 16.0717L 19.1593 14.9987C 18.878 14.7174 18.72 14.3359 18.72 13.9381L 18.72 12.0607C 18.72 11.6629 18.878 11.2813 19.1593 11L 20.2324 9.92702C 20.587 9.57239 21.0954 9.41845 21.5872 9.51681L 24.7942 10.1582Z"/>
<path id="path4_fill" d="M 1.20583 15.8418C 0.50469 15.7016 -4.37824e-17 15.0859 0 14.3709L 0 11.6303C 4.37824e-17 10.9153 0.50469 10.2997 1.20583 10.1595L 4.41281 9.51806C 4.9046 9.4197 5.41301 9.57364 5.76765 9.92827L 6.84066 11.0013C 7.12197 11.2826 7.28 11.6641 7.28 12.0619L 7.28 13.9393C 7.28 14.3371 7.12197 14.7187 6.84066 15L 5.76765 16.073C 5.41301 16.4276 4.9046 16.5815 4.41281 16.4832L 1.20583 15.8418Z"/>
<path id="path5_fill" d="M 23.3486 19.3299C 23.7452 19.9248 23.6668 20.717 23.1612 21.2226L 21.2233 23.1605C 20.7177 23.6661 19.9255 23.7445 19.3306 23.3479L 16.6094 21.5338C 16.1921 21.2556 15.9414 20.7872 15.9414 20.2857L 15.9414 18.7682C 15.9414 18.3704 16.0995 17.9889 16.3808 17.7076L 17.7083 16.3801C 17.9896 16.0988 18.3711 15.9407 18.7689 15.9407L 20.2864 15.9407C 20.7879 15.9407 21.2563 16.1914 21.5345 16.6087L 23.3486 19.3299Z"/>
<path id="path6_fill" d="M 2.65103 6.67011C 2.25441 6.07518 2.33285 5.283 2.83844 4.7774L 4.77633 2.83951C 5.28193 2.33391 6.07411 2.25547 6.66904 2.6521L 9.39026 4.46624C 9.80756 4.74444 10.0582 5.21279 10.0582 5.71432L 10.0582 7.23179C 10.0582 7.62961 9.90018 8.01114 9.61887 8.29245L 8.29138 9.61994C 8.01008 9.90124 7.62854 10.0593 7.23072 10.0593L 5.71325 10.0593C 5.21172 10.0593 4.74337 9.80863 4.46518 9.39133L 2.65103 6.67011Z"/>
<path id="path7_fill" d="M 6.66962 23.3491C 6.07469 23.7457 5.28251 23.6673 4.77691 23.1617L 2.83902 21.2238C 2.33343 20.7182 2.25498 19.926 2.65161 19.3311L 4.46575 16.6099C 4.74395 16.1926 5.2123 15.9419 5.71383 15.9419L 7.2313 15.9419C 7.62912 15.9419 8.01065 16.0999 8.29196 16.3812L 9.61945 17.7087C 9.90076 17.99 10.0588 18.3716 10.0588 18.7694L 10.0588 20.2869C 10.0588 20.7884 9.80814 21.2567 9.39084 21.5349L 6.66962 23.3491Z"/>
<path id="path8_fill" d="M 19.3304 2.65188C 19.9253 2.25526 20.7175 2.3337 21.2231 2.8393L 23.161 4.77719C 23.6666 5.28278 23.745 6.07496 23.3484 6.6699L 21.5342 9.39112C 21.256 9.80842 20.7877 10.0591 20.2862 10.0591L 18.7687 10.0591C 18.3709 10.0591 17.9893 9.90103 17.708 9.61973L 16.3805 8.29223C 16.0992 8.01093 15.9412 7.6294 15.9412 7.23157L 15.9412 5.71411C 15.9412 5.21258 16.1919 4.74423 16.6092 4.46603L 19.3304 2.65188Z"/>
</defs>
</svg>
