<svg width="23" height="18" viewBox="0 0 23 18" version="1.1" xmlns="http://www.w3.org/2000/svg" xmlns:xlink="http://www.w3.org/1999/xlink">
<title>Combined Shape</title>
<desc>Created using Figma</desc>
<g id="Canvas" transform="translate(-2025 4553)">
<g id="Combined Shape">
<use xlink:href="#path0_fill" transform="translate(2025 -4553)" fill="#6B6B6B"/>
</g>
</g>
<defs>
<path id="path0_fill" fill-rule="evenodd" d="M 10.0686 15.3782C 8.84483 16.9558 8.05331 17.7446 7.69402 17.7446C 7.31163 17.7446 6.43189 16.8512 5.0548 15.0643C 4.09918 14.9511 3.21207 14.8082 2.39347 14.6356L 2.39347 14.6356C 1.57056 14.4622 0.901765 13.863 0.637633 13.0625C 0.212544 11.7742 0 9.98472 0 7.69408C 2.37076e-16 5.39201 0.214673 3.59614 0.644018 2.30649L 0.644021 2.3065C 0.907878 1.51393 1.56886 0.919527 2.38324 0.742459C 4.65974 0.247486 7.59959 3.02734e-16 11.2028 0C 14.7902 0 17.7258 0.245313 20.0098 0.735939L 20.0098 0.735931C 20.8254 0.911141 21.4883 1.50489 21.7536 2.29786C 22.2045 3.64558 22.43 5.44434 22.43 7.69414C 22.43 9.94035 22.2053 11.737 21.7558 13.084L 21.7558 13.084C 21.4905 13.8791 20.8255 14.4742 20.0076 14.6485C 17.6936 15.1417 14.7821 15.3883 11.2732 15.3883C 10.8639 15.3883 10.4623 15.3849 10.0686 15.3782ZM 5.31237 9.46971C 6.29035 9.46971 7.08316 8.67476 7.08316 7.69414C 7.08316 6.71352 6.29035 5.91857 5.31237 5.91857C 4.33439 5.91857 3.54158 6.71352 3.54158 7.69414C 3.54158 8.67476 4.33439 9.46971 5.31237 9.46971ZM 11.215 9.46971C 12.193 9.46971 12.9858 8.67476 12.9858 7.69414C 12.9858 6.71352 12.193 5.91857 11.215 5.91857C 10.237 5.91857 9.44421 6.71352 9.44421 7.69414C 9.44421 8.67476 10.237 9.46971 11.215 9.46971ZM 17.1176 9.46971C 18.0956 9.46971 18.8884 8.67476 18.8884 7.69414C 18.8884 6.71352 18.0956 5.91857 17.1176 5.91857C 16.1397 5.91857 15.3468 6.71352 15.3468 7.69414C 15.3468 8.67476 16.1397 9.46971 17.1176 9.46971Z"/>
</defs>
</svg>
