<svg width="21" height="20" viewBox="0 0 21 20" version="1.1" xmlns="http://www.w3.org/2000/svg" xmlns:xlink="http://www.w3.org/1999/xlink">
<title>Fill 1</title>
<desc>Created using Figma</desc>
<g id="Canvas" transform="translate(-2296 4553)">
<g id="Fill 1">
<use xlink:href="#path0_fill" transform="matrix(1 0 0 -1 2296 -4533)" fill="#6B6B6B"/>
</g>
</g>
<defs>
<path id="path0_fill" fill-rule="evenodd" d="M 1.25425 20L 6.63587 20C 6.0665 18.122 5.78182 16.3591 5.78182 14.7116C 5.78182 13.064 6.0665 11.3012 6.63587 9.42312L 1.25425 9.42312C 0.418083 11.1986 6.75734e-17 12.9658 0 14.7248C 0 16.4837 0.418083 18.2421 1.25425 20ZM 20.0545 11.0839C 20.7572 12.2886 20.6173 13.2244 19.6348 13.8914C 20.4977 14.9769 20.3574 15.9127 19.214 16.6988C 19.9843 17.8341 19.6753 18.7434 18.2871 19.4266C 16.4795 19.7415 15.1174 19.8991 14.201 19.8996C 13.1788 19.9002 11.6918 19.7559 9.73997 19.4668C 9.15051 19.3292 8.54605 19.0981 7.93223 18.6783C 7.72767 18.548 7.57124 18.3306 7.46292 18.0262C 7.30045 17.5696 7.06916 16.0049 7.06916 14.7128C 7.06916 13.4129 7.4274 10.9294 7.53679 10.7516C 7.64619 10.5737 8.63648 10.0413 8.97391 9.71515C 9.60872 9.093 12.1408 4.24834 12.2122 3.6701C 12.2837 3.09186 12.1585 0.456704 12.1585 0.456704C 12.1585 0.456704 12.1272 0.243004 12.4174 0.118708C 12.7808 -0.0369204 13.5062 -0.0831611 13.8056 0.253753C 13.8056 0.253753 14.3968 0.942677 14.7007 1.93562C 14.8873 2.54541 14.9993 3.66529 14.8911 4.58309C 14.8911 4.58309 14.4319 7.33651 14.201 8.39838C 15.6111 8.22962 16.584 8.14525 17.1196 8.14525C 17.9269 8.14525 18.9685 8.22962 20.2443 8.39838C 21.1175 8.53552 21.4475 10.8338 20.0545 11.0839Z"/>
</defs>
</svg>
