<svg width="24" height="16" viewBox="0 0 24 16" version="1.1" xmlns="http://www.w3.org/2000/svg" xmlns:xlink="http://www.w3.org/1999/xlink">
<title>Email Icon</title>
<desc>Created using Figma</desc>
<g id="Canvas" transform="translate(-273 5916)">
<g id="Email Icon">
<g id="Subtract">
<use xlink:href="#path0_fill" transform="translate(273 -5916)" fill="#969696"/>
</g>
</g>
</g>
<defs>
<path id="path0_fill" fill-rule="evenodd" d="M 0.609192 1.1875C 0.226898 1.69092 0 2.31885 0 3L 0 13C 0 14.6567 1.34314 16 3 16L 21 16C 22.6569 16 24 14.6567 24 13L 24 3C 24 2.31885 23.7731 1.69092 23.3908 1.1875L 16.6776 6.99023L 20.0788 10.604C 20.2681 10.8047 20.2585 11.1216 20.0574 11.3105C 19.8563 11.5 19.5399 11.4902 19.3506 11.2891L 15.9203 7.64502L 12.8409 10.3066L 12.8211 10.3228C 12.337 10.6997 11.663 10.6997 11.1789 10.3228L 11.1591 10.3066L 8.07977 7.64502L 4.65027 11.2891C 4.46103 11.4902 4.14459 11.5 3.94348 11.3105C 3.74237 11.1216 3.73276 10.8052 3.922 10.604L 7.32242 6.99023L 0.609192 1.1875ZM 22.6577 0.499023C 22.1828 0.183594 21.6129 0 21 0L 3 0C 2.38715 0 1.81723 0.183594 1.34232 0.499023L 11.8012 9.53955C 11.9206 9.62744 12.0794 9.62744 12.1988 9.53955L 22.6577 0.499023Z"/>
</defs>
</svg>
