<svg width="21" height="19" viewBox="0 0 21 19" version="1.1" xmlns="http://www.w3.org/2000/svg" xmlns:xlink="http://www.w3.org/1999/xlink">
<title>Fill 1</title>
<desc>Created using Figma</desc>
<g id="Canvas" transform="translate(-1956 4556)">
<g id="Fill 1">
<use xlink:href="#path0_fill" transform="translate(1956 -4556)" fill="#6B6B6B"/>
</g>
</g>
<defs>
<path id="path0_fill" fill-rule="evenodd" d="M 1.22757 18.62L 6.49473 18.62C 5.93747 16.8715 5.65884 15.2304 5.65884 13.6965C 5.65884 12.1626 5.93747 10.5214 6.49473 8.77292L 1.22757 8.77292C 0.40919 10.4259 6.61361e-17 12.0712 0 13.7088C 0 15.3464 0.40919 16.9834 1.22757 18.62ZM 19.6279 10.3191C 20.3157 11.4407 20.1787 12.3119 19.2171 12.9328C 20.0617 13.9435 19.9244 14.8147 18.8054 15.5466C 19.5592 16.6036 19.2568 17.4501 17.8982 18.0862C 16.1289 18.3793 14.7959 18.5261 13.8989 18.5266C 12.8985 18.5271 11.4431 18.3928 9.53279 18.1236C 8.95587 17.9955 8.36427 17.7804 7.76351 17.3895C 7.5633 17.2682 7.41019 17.0658 7.30418 16.7824C 7.14516 16.3573 6.9188 14.9006 6.9188 13.6976C 6.9188 12.4874 7.26942 10.1753 7.37648 10.0097C 7.48355 9.84409 8.45278 9.34847 8.78304 9.0448C 9.40433 8.46559 11.8825 3.9552 11.9525 3.41686C 12.0224 2.87852 11.8999 0.425192 11.8999 0.425192C 11.8999 0.425192 11.8693 0.226237 12.1533 0.110517C 12.5089 -0.0343729 13.219 -0.077423 13.5119 0.236244C 13.5119 0.236244 14.0905 0.877632 14.388 1.80206C 14.5706 2.36977 14.6803 3.41239 14.5743 4.26685C 14.5743 4.26685 14.125 6.83029 13.8989 7.81889C 15.2791 7.66178 16.2312 7.58322 16.7555 7.58322C 17.5456 7.58322 18.565 7.66178 19.8137 7.81889C 20.6683 7.94657 20.9913 10.0863 19.6279 10.3191Z"/>
</defs>
</svg>
