<svg width="18" height="19" viewBox="0 0 18 19" version="1.1" xmlns="http://www.w3.org/2000/svg" xmlns:xlink="http://www.w3.org/1999/xlink">
<title>Share</title>
<desc>Created using Figma</desc>
<g id="Canvas" transform="translate(-2165 4554)">
<g id="Share">
<g id="Vector">
<use xlink:href="#path0_fill" transform="translate(2166 -4553)" fill="#6B6B6B"/>
<use xlink:href="#path1_stroke" transform="translate(2166 -4553)" fill="#6B6B6B"/>
</g>
<g id="Ellipse">
<use xlink:href="#path2_fill" transform="translate(2166 -4547.05)" fill="#6B6B6B"/>
</g>
<g id="Ellipse">
<use xlink:href="#path2_fill" transform="translate(2176.11 -4541.1)" fill="#6B6B6B"/>
</g>
<g id="Ellipse">
<use xlink:href="#path2_fill" transform="translate(2176.95 -4553)" fill="#6B6B6B"/>
</g>
</g>
</g>
<defs>
<path id="path0_fill" d="M 11.034 12.0823C 10.8815 12.2333 10.7503 12.3992 10.6369 12.5747L 5.61008 9.55222C 5.74302 9.22256 5.81837 8.86409 5.81837 8.48804C 5.81837 8.11199 5.74302 7.75352 5.61037 7.42387L 10.6384 4.42441C 11.1547 5.2278 12.06 5.7632 13.091 5.7632C 14.695 5.7632 16 4.47051 16 2.8816C 16 1.29269 14.695 0 13.091 0C 11.4869 0 10.1819 1.29269 10.1819 2.8816C 10.1819 3.24353 10.2526 3.58874 10.376 3.90803L 5.34128 6.91152C 4.82115 6.12657 3.92575 5.60644 2.90904 5.60644C 1.30499 5.60644 -6.1034e-09 6.89913 -6.1034e-09 8.48804C -6.1034e-09 10.077 1.30499 11.3696 2.90904 11.3696C 3.92575 11.3696 4.82086 10.8495 5.34099 10.0646L 10.3748 13.0911C 10.2497 13.4156 10.1816 13.7622 10.1816 14.1198C 10.1816 14.8895 10.4842 15.6134 11.0337 16.1574C 11.6007 16.719 12.3457 17 13.0907 17C 13.8357 17 14.5807 16.719 15.1477 16.1574C 15.6972 15.6131 15.9997 14.8895 15.9997 14.1198C 15.9997 13.3502 15.6972 12.6263 15.1477 12.0823C 14.0134 10.9584 12.1682 10.9584 11.034 12.0823ZM 13.091 0.57632C 14.3741 0.57632 15.4182 1.61053 15.4182 2.8816C 15.4182 4.15267 14.3741 5.18688 13.091 5.18688C 11.8078 5.18688 10.7637 4.15267 10.7637 2.8816C 10.7637 1.61053 11.8075 0.57632 13.091 0.57632ZM 2.90933 10.7933C 1.62615 10.7933 0.582098 9.75912 0.582098 8.48804C 0.582098 7.21697 1.62615 6.18276 2.90933 6.18276C 4.19251 6.18276 5.23656 7.21697 5.23656 8.48804C 5.23656 9.75912 4.19251 10.7933 2.90933 10.7933ZM 14.7363 15.75C 13.829 16.6487 12.3526 16.6487 11.4453 15.75C 11.0058 15.3146 10.7637 14.7354 10.7637 14.1198C 10.7637 13.5043 11.0058 12.9251 11.4453 12.4897C 11.8991 12.0402 12.4949 11.8157 13.091 11.8157C 13.687 11.8157 14.2828 12.0402 14.7366 12.4897C 15.1762 12.9251 15.4182 13.5043 15.4182 14.1198C 15.4182 14.7354 15.1762 15.3146 14.7363 15.75Z"/>
<path id="path1_stroke" d="M 11.034 12.0823L 11.3859 12.4375L 11.3859 12.4374L 11.034 12.0823ZM 10.6369 12.5747L 10.3792 13.0032L 10.794 13.2526L 11.0568 12.8462L 10.6369 12.5747ZM 5.61008 9.55222L 5.14637 9.36521L 4.9868 9.76088L 5.35243 9.98072L 5.61008 9.55222ZM 5.61037 7.42387L 5.35421 6.99447L 4.98681 7.21364L 5.14652 7.61052L 5.61037 7.42387ZM 10.6384 4.42441L 11.059 4.15407L 10.7975 3.74726L 10.3822 3.99501L 10.6384 4.42441ZM 10.376 3.90803L 10.6321 4.33742L 10.9944 4.12132L 10.8424 3.72785L 10.376 3.90803ZM 5.34128 6.91152L 4.92449 7.1877L 5.1879 7.58523L 5.59745 7.34091L 5.34128 6.91152ZM 5.34099 10.0646L 5.59863 9.63605L 5.18852 9.38948L 4.9242 9.78838L 5.34099 10.0646ZM 10.3748 13.0911L 10.8413 13.271L 10.9924 12.879L 10.6324 12.6626L 10.3748 13.0911ZM 11.0337 16.1574L 11.3856 15.8022L 11.3855 15.8021L 11.0337 16.1574ZM 15.1477 12.0823L 14.7957 12.4374L 14.7959 12.4376L 15.1477 12.0823ZM 14.7363 15.75L 14.3846 15.3946L 14.3844 15.3947L 14.7363 15.75ZM 11.4453 12.4897L 11.0934 12.1345L 11.4453 12.4897ZM 10.6821 11.727C 10.5088 11.9 10.3438 12.1082 10.217 12.3033L 11.0568 12.8462C 11.1569 12.6903 11.2543 12.5665 11.3859 12.4375L 10.6821 11.727ZM 10.8945 12.1462L 5.86773 9.12371L 5.35243 9.98072L 10.3792 13.0032L 10.8945 12.1462ZM 6.07379 9.73922C 6.22139 9.36805 6.31569 8.91579 6.31837 8.48804L 5.31837 8.48804C 5.32105 8.81239 5.26466 9.07707 5.14637 9.36521L 6.07379 9.73922ZM 6.31837 8.48804C 6.31569 8.06029 6.22144 7.60822 6.07423 7.23721L 5.14652 7.61052C 5.2646 7.89883 5.32105 8.16369 5.31837 8.48804L 6.31837 8.48804ZM 5.86653 7.85326L 10.8945 4.85381L 10.3822 3.99501L 5.35421 6.99447L 5.86653 7.85326ZM 10.2177 4.69475C 10.8222 5.63528 11.8828 6.2632 13.091 6.2632L 13.091 5.2632C 12.2371 5.2632 11.4872 4.82032 11.059 4.15407L 10.2177 4.69475ZM 13.091 6.2632C 14.9667 6.2632 16.5 4.75111 16.5 2.8816L 15.5 2.8816C 15.5 4.18992 14.4233 5.2632 13.091 5.2632L 13.091 6.2632ZM 16.5 2.8816C 16.5 1.01209 14.9667 -0.5 13.091 -0.5L 13.091 0.5C 14.4233 0.5 15.5 1.57328 15.5 2.8816L 16.5 2.8816ZM 13.091 -0.5C 11.2153 -0.5 9.68192 1.01209 9.68192 2.8816L 10.6819 2.8816C 10.6819 1.57328 11.7586 0.5 13.091 0.5L 13.091 -0.5ZM 9.68192 2.8816C 9.68447 3.29394 9.77283 3.72948 9.90955 4.08821L 10.8424 3.72785C 10.7324 3.44801 10.6794 3.19312 10.6819 2.8816L 9.68192 2.8816ZM 10.1198 3.47863L 5.08512 6.48212L 5.59745 7.34091L 10.6321 4.33742L 10.1198 3.47863ZM 5.75808 6.63533C 5.14908 5.71627 4.10009 5.10644 2.90904 5.10644L 2.90904 6.10644C 3.7514 6.10644 4.49322 6.53687 4.92449 7.1877L 5.75808 6.63533ZM 2.90904 5.10644C 1.03333 5.10644 -0.5 6.61853 -0.5 8.48804L 0.5 8.48804C 0.5 7.17973 1.57666 6.10644 2.90904 6.10644L 2.90904 5.10644ZM -0.5 8.48804C -0.5 10.3576 1.03333 11.8696 2.90904 11.8696L 2.90904 10.8696C 1.57666 10.8696 0.5 9.79636 0.5 8.48804L -0.5 8.48804ZM 2.90904 11.8696C 4.10015 11.8696 5.14882 11.2598 5.75779 10.3408L 4.9242 9.78838C 4.4929 10.4393 3.75135 10.8696 2.90904 10.8696L 2.90904 11.8696ZM 5.08335 10.4931L 10.1172 13.5196L 10.6324 12.6626L 5.59863 9.63605L 5.08335 10.4931ZM 9.90826 12.9113C 9.7693 13.277 9.68398 13.7138 9.68163 14.1198L 10.6816 14.1198C 10.6793 13.8106 10.7301 13.5542 10.8413 13.271L 9.90826 12.9113ZM 9.68163 14.1198C 9.68163 15.0236 10.038 15.8752 10.6819 16.5127L 11.3855 15.8021C 10.9304 15.3515 10.6816 14.7554 10.6816 14.1198L 9.68163 14.1198ZM 10.6818 16.5126C 11.347 17.1715 12.2204 17.5 13.0907 17.5L 13.0907 16.5C 12.4709 16.5 11.8544 16.2666 11.3856 15.8022L 10.6818 16.5126ZM 13.0907 17.5C 13.9609 17.5 14.8344 17.1715 15.4995 16.5126L 14.7958 15.8022C 14.327 16.2666 13.7104 16.5 13.0907 16.5L 13.0907 17.5ZM 15.4995 16.5126C 16.1433 15.8749 16.4997 15.0237 16.4997 14.1198L 15.4997 14.1198C 15.4997 14.7554 15.251 15.3513 14.7958 15.8022L 15.4995 16.5126ZM 16.4997 14.1198C 16.4997 13.2161 16.1434 12.3645 15.4994 11.7269L 14.7959 12.4376C 15.251 12.8881 15.4997 13.4842 15.4997 14.1198L 16.4997 14.1198ZM 15.4996 11.7271C 14.1705 10.4102 12.0112 10.4102 10.6821 11.7271L 11.3859 12.4374C 12.3253 11.5067 13.8564 11.5067 14.7957 12.4374L 15.4996 11.7271ZM 13.091 1.07632C 14.1025 1.07632 14.9182 1.89113 14.9182 2.8816L 15.9182 2.8816C 15.9182 1.32993 14.6458 0.07632 13.091 0.07632L 13.091 1.07632ZM 14.9182 2.8816C 14.9182 3.87207 14.1025 4.68688 13.091 4.68688L 13.091 5.68688C 14.6458 5.68688 15.9182 4.43327 15.9182 2.8816L 14.9182 2.8816ZM 13.091 4.68688C 12.0794 4.68688 11.2637 3.87207 11.2637 2.8816L 10.2637 2.8816C 10.2637 4.43327 11.5361 5.68688 13.091 5.68688L 13.091 4.68688ZM 11.2637 2.8816C 11.2637 1.89108 12.0792 1.07632 13.091 1.07632L 13.091 0.07632C 11.5358 0.07632 10.2637 1.32997 10.2637 2.8816L 11.2637 2.8816ZM 2.90933 10.2933C 1.89782 10.2933 1.0821 9.47852 1.0821 8.48804L 0.0820985 8.48804C 0.0820985 10.0397 1.35449 11.2933 2.90933 11.2933L 2.90933 10.2933ZM 1.0821 8.48804C 1.0821 7.49757 1.89782 6.68276 2.90933 6.68276L 2.90933 5.68276C 1.35449 5.68276 0.0820985 6.93637 0.0820985 8.48804L 1.0821 8.48804ZM 2.90933 6.68276C 3.92084 6.68276 4.73656 7.49757 4.73656 8.48804L 5.73656 8.48804C 5.73656 6.93637 4.46417 5.68276 2.90933 5.68276L 2.90933 6.68276ZM 4.73656 8.48804C 4.73656 9.47852 3.92084 10.2933 2.90933 10.2933L 2.90933 11.2933C 4.46417 11.2933 5.73656 10.0397 5.73656 8.48804L 4.73656 8.48804ZM 14.3844 15.3947C 13.672 16.1005 12.5097 16.1005 11.7972 15.3947L 11.0934 16.1052C 12.1956 17.197 13.986 17.197 15.0882 16.1052L 14.3844 15.3947ZM 11.7972 15.3947C 11.452 15.0528 11.2637 14.6013 11.2637 14.1198L 10.2637 14.1198C 10.2637 14.8694 10.5596 15.5763 11.0934 16.1052L 11.7972 15.3947ZM 11.2637 14.1198C 11.2637 13.6384 11.452 13.1869 11.7972 12.8449L 11.0934 12.1345C 10.5596 12.6633 10.2637 13.3702 10.2637 14.1198L 11.2637 14.1198ZM 11.7972 12.8449C 12.1528 12.4927 12.6201 12.3157 13.091 12.3157L 13.091 11.3157C 12.3697 11.3157 11.6455 11.5877 11.0934 12.1345L 11.7972 12.8449ZM 13.091 12.3157C 13.5619 12.3157 14.0292 12.4927 14.3847 12.8449L 15.0885 12.1345C 14.5364 11.5877 13.8122 11.3157 13.091 11.3157L 13.091 12.3157ZM 14.3847 12.8449C 14.73 13.1869 14.9182 13.6384 14.9182 14.1198L 15.9182 14.1198C 15.9182 13.3702 15.6224 12.6633 15.0885 12.1345L 14.3847 12.8449ZM 14.9182 14.1198C 14.9182 14.6012 14.73 15.0527 14.3846 15.3946L 15.0881 16.1053C 15.6223 15.5764 15.9182 14.8695 15.9182 14.1198L 14.9182 14.1198Z"/>
<path id="path2_fill" d="M 5.05263 2.55C 5.05263 3.95833 3.92156 5.1 2.52632 5.1C 1.13107 5.1 0 3.95833 0 2.55C 0 1.14167 1.13107 0 2.52632 0C 3.92156 0 5.05263 1.14167 5.05263 2.55Z"/>
</defs>
</svg>
