<svg xmlns="http://www.w3.org/2000/svg" xmlns:xlink="http://www.w3.org/1999/xlink" viewBox="0 0 40 40"><defs><style>.cls-1{fill:#170245;}.cls-2{fill:url(#linear-gradient);}.cls-3{fill:url(#linear-gradient-2);}.cls-4{fill:url(#linear-gradient-3);}.cls-5{opacity:0.2;}</style><linearGradient id="linear-gradient" x1="5.09" y1="26.89" x2="5.88" y2="26.89" gradientUnits="userSpaceOnUse"><stop offset="0" stop-color="#4f4f4f"/><stop offset="1" stop-color="#757575"/></linearGradient><linearGradient id="linear-gradient-2" x1="3.92" y1="25.47" x2="38.54" y2="25.47" gradientUnits="userSpaceOnUse"><stop offset="0" stop-color="#00f7ff"/><stop offset="1" stop-color="#0be"/></linearGradient><linearGradient id="linear-gradient-3" y1="13.8" x2="38.49" y2="13.8" gradientUnits="userSpaceOnUse"><stop offset="0" stop-color="#fc2000"/><stop offset="1" stop-color="#f09"/></linearGradient></defs><title>icon colored</title><g id="Layer_2" data-name="Layer 2"><g id="Layer_2-2" data-name="Layer 2"><path class="cls-1" d="M20,0A20,20,0,1,0,40,20,20,20,0,0,0,20,0Zm0,36.08A16.08,16.08,0,1,1,36.08,20,16.08,16.08,0,0,1,20,36.08Z"/><path class="cls-2" d="M5.88,27.72a14.67,14.67,0,0,1-.79-1.65C5.33,26.63,5.59,27.19,5.88,27.72Z"/><path class="cls-3" d="M38.54,27.57a20.47,20.47,0,0,1-1.3,2.66A28,28,0,0,0,33.93,28a16,16,0,0,1-13.94,8h-.72l-.57,0L18.14,36,18,36l-.42-.05c-.39-.06-.78-.13-1.16-.22s-.46-.1-.68-.17a5.26,5.26,0,0,1-.53-.15,15.7,15.7,0,0,1-5-2.56,10.32,10.32,0,0,1-1-.85,12.67,12.67,0,0,1-1-1c-.15-.15-.29-.31-.44-.47L7.38,30,7,29.53a16.35,16.35,0,0,1-1.16-1.81c-.29-.53-.55-1.09-.79-1.65-.08-.2-.15-.39-.22-.58s-.22-.62-.31-.94-.13-.44-.19-.67-.11-.46-.15-.68a15.56,15.56,0,0,1-.3-2.48L5,20a28.32,28.32,0,0,1,26-2l3.16-2.33,1-.76a13.78,13.78,0,0,1,.41,1.43,3.43,3.43,0,0,1,.11.46,16.42,16.42,0,0,1,.32,2.92c0,.11,0,.22,0,.32a15.88,15.88,0,0,1-.85,5.14Z"/><path class="cls-4" d="M38.49,12.45l-3.26,2.41-1,.76L31,18A28.31,28.31,0,0,0,5,20l-1.11.73c-.53.37-1,.74-1.52,1.14C1.68,22.44,1,23,.32,23.69A20.45,20.45,0,0,1,0,20.08a1.09,1.09,0,0,1,0-.18L2.4,18.13l1.82-1.35A16.1,16.1,0,0,1,33.93,12a26.57,26.57,0,0,0,3.23-2.14A20.37,20.37,0,0,1,38.49,12.45Z"/><path class="cls-5" d="M36.07,19.67,31.63,23l-2.3-1a23.82,23.82,0,0,0-22,1.74l-1,.62c-.46.33-.87.63-1.25.94l-.27.22c-.11-.31-.22-.62-.31-.94s-.13-.44-.19-.67-.11-.46-.15-.68a15.56,15.56,0,0,1-.3-2.48L5,20a28.32,28.32,0,0,1,26-2l3.16-2.33,1-.76a13.78,13.78,0,0,1,.41,1.43,3.43,3.43,0,0,1,.11.46A16.42,16.42,0,0,1,36.07,19.67Z"/></g></g></svg>