<svg xmlns="http://www.w3.org/2000/svg" viewBox="0 0 216.66 216.71">
  <g>
    <path d="M201.26 52.7a149.4 149.4 0 0 1-17.5 11.62 87.23 87.23 0 0 0-161 26.17l-9.85 7.3L0 107.34A108.3 108.3 0 0 1 201.26 52.7z"/>
    <path d="M190.83 135.7a85.77 85.77 0 0 0 4.6-27.82c0-.56 0-1.18-.05-1.75L171.3 123.9l-12.46-5.3a129.8 129.8 0 0 0-101.06 0 125.62 125.62 0 0 0-18.06 9.4c-1.7 1-3.4 2.18-5.17 3.36-2.46 1.76-4.7 3.42-6.78 5.08-.47.38-.94.75-1.42 1.18.38 1 .76 2.1 1.2 3.13a98.16 98.16 0 0 0 4.25 9 88.48 88.48 0 0 0 6.3 9.8c.58.82 1.2 1.62 1.86 2.43l2.4 3s1.58 1.76 2.38 2.56c1.7 1.85 3.46 3.56 5.3 5.22a65.6 65.6 0 0 0 5.6 4.6 85.47 85.47 0 0 0 26.88 13.84c1 .33 1.9.6 2.9.85 1.18.33 2.4.62 3.64.9 2.1.47 4.17.85 6.3 1.2.72.08 1.48.22 2.28.27.2.05.38.05.57.1l3 .28c1.07.1 2 .14 3.1.2 1.33 0 2.6.08 3.94.08a87 87 0 0 0 75.5-43.65 147.63 147.63 0 0 1 17.93 11.94 108.4 108.4 0 0 1-200-35.45c3.6-3.5 7.35-6.78 11.24-9.9 2.66-2.14 5.4-4.18 8.26-6.17 2-1.33 4-2.66 6-3.94A154.6 154.6 0 0 1 48.5 96.8a153.57 153.57 0 0 1 119.63 0l17.1-12.62 5.6-4.12 17.63-13a108.13 108.13 0 0 1 .3 81.9z"/>
  </g>
</svg>
