<svg width="76" height="76" viewBox="0 0 76 76" version="1.1" xmlns="http://www.w3.org/2000/svg" xmlns:xlink="http://www.w3.org/1999/xlink">
<title>Combined Shape</title>
<desc>Created using Figma</desc>
<g id="Canvas" transform="translate(-1899 7678)">
<g id="Combined Shape">
<use xlink:href="#path0_fill" transform="translate(1899 -7678)" fill="#FFFFFF"/>
</g>
</g>
<defs>
<path id="path0_fill" fill-rule="evenodd" d="M 38 76C 17.0132 76 0 58.9868 0 38C 0 17.0132 17.0132 0 38 0C 58.9868 0 76 17.0132 76 38C 76 58.9868 58.9868 76 38 76ZM 38.3468 15C 33.0602 15 28.7746 19.2856 28.7746 24.5723C 28.7746 29.8589 33.0602 34.1445 38.3468 34.1445C 43.6334 34.1445 47.9191 29.8589 47.9191 24.5723C 47.9191 19.2856 43.6334 15 38.3468 15ZM 44.7283 61L 44.7294 61C 46.0696 61.0011 47.3552 60.4691 48.3029 59.5215C 49.2505 58.5738 49.7825 57.2882 49.7814 55.948L 49.7814 51.7423C 49.699 51.7402 49.6192 51.7402 49.5394 51.7402C 48.7336 51.7325 47.9294 51.8155 47.1421 51.9877C 45.3678 52.398 43.3353 53.3754 42.2433 53.9006L 42.2419 53.9006C 41.2485 54.3792 40.7497 54.6185 39.9954 54.6185C 39.4379 54.6189 38.8917 54.4615 38.4199 54.1643C 38.3737 54.016 38.2364 53.915 38.0811 53.915C 37.9257 53.915 37.7884 54.016 37.7422 54.1643C 37.2706 54.4611 36.7247 54.6184 36.1675 54.6182C 35.4132 54.6182 34.9141 54.3789 33.9197 53.9003C 32.8276 53.3752 30.7948 52.3975 29.0205 51.9875C 28.2332 51.8152 27.4291 51.7322 26.6232 51.7399C 26.544 51.7399 26.4674 51.7404 26.3815 51.742L 26.3815 55.948C 26.3803 57.2882 26.9122 58.5739 27.8599 59.5216C 28.8076 60.4693 30.0933 61.0012 31.4335 61L 44.7283 61ZM 39.9954 52.4913C 40.2642 52.4913 40.4881 52.385 41.3217 51.9816L 41.3243 51.9816C 42.4913 51.4208 44.6637 50.3772 46.6632 49.9151C 47.6075 49.7063 48.5724 49.6049 49.5394 49.6127C 50.6015 49.6105 51.6613 49.7122 52.7036 49.9164L 52.7887 49.9355L 52.8756 49.9355C 53.5359 49.9134 54.0541 49.3616 54.0347 48.7012L 54.0347 48.237C 51.6851 48.237 49.7803 46.3323 49.7803 43.9827L 49.7803 39.7283C 49.7803 37.3789 51.6848 35.4743 54.0341 35.474L 54.0355 35.474L 54.0355 34.9036C 54.029 34.5265 53.846 34.1742 53.5412 33.952C 53.4435 33.8748 53.3383 33.8076 53.2272 33.7515L 53.1421 33.7095L 53.0503 33.689C 51.9022 33.458 50.7337 33.3434 49.5626 33.3468C 48.4786 33.3393 47.3972 33.4545 46.3391 33.6901C 44.7043 34.1123 43.135 34.7564 41.675 35.6045C 41.0903 35.9348 40.5285 36.2855 40.0932 36.5921C 39.8909 36.7346 39.726 36.8601 39.6034 36.9643C 39.3296 37.1609 39.1608 37.4721 39.1453 37.8088L 39.1453 51.6064C 39.1436 51.9122 39.2976 52.1979 39.554 52.3645C 39.6862 52.4476 39.8392 52.4916 39.9954 52.4913ZM 36.1681 52.4913L 36.1665 52.4913C 36.3235 52.4921 36.4775 52.4482 36.6105 52.3648C 36.8668 52.1981 37.0207 51.9124 37.0189 51.6067L 37.0189 37.8091C 37.0034 37.4722 36.8345 37.161 36.5605 36.9643C 36.4358 36.858 36.271 36.733 36.0713 36.5921C 35.6326 36.2834 35.0702 35.9327 34.4892 35.6045C 33.0294 34.7563 31.4602 34.1122 29.8254 33.6901C 28.7673 33.4545 27.6859 33.3393 26.6019 33.3468C 25.4308 33.3447 24.2623 33.4593 23.1139 33.689L 23.0224 33.7095L 22.9371 33.7515C 22.8258 33.8074 22.7206 33.8745 22.6231 33.952C 22.3183 34.1742 22.1353 34.5265 22.1288 34.9036L 22.1288 35.474C 24.4784 35.474 26.3831 37.3787 26.3831 39.7283L 26.3831 43.9827C 26.3831 46.3323 24.4784 48.237 22.1288 48.237L 22.1288 48.7026C 22.1094 49.363 22.6275 49.9147 23.2878 49.9369L 23.375 49.9369L 23.4598 49.9177C 24.502 49.7127 25.5619 49.611 26.624 49.6141C 27.5911 49.6062 28.5559 49.7077 29.5002 49.9164C 31.5005 50.3785 33.6729 51.4227 34.8399 51.9835L 34.842 51.9835C 35.6746 52.385 35.8982 52.4913 36.1681 52.4913ZM 54.0347 37.6012C 52.8599 37.6012 51.9075 38.5535 51.9075 39.7283L 51.9075 43.9827C 51.9075 45.1575 52.8599 46.1098 54.0347 46.1098C 55.2095 46.1098 56.1618 45.1575 56.1618 43.9827L 56.1618 39.7283C 56.1618 38.5535 55.2095 37.6012 54.0347 37.6012ZM 22.1272 37.6012C 20.9524 37.6012 20 38.5535 20 39.7283L 20 43.9827C 20 45.1575 20.9524 46.1098 22.1272 46.1098C 23.302 46.1098 24.2543 45.1575 24.2543 43.9827L 24.2543 39.7283C 24.2543 38.5535 23.302 37.6012 22.1272 37.6012Z"/>
</defs>
</svg>
