<?xml version="1.0" encoding="UTF-8" standalone="no"?>
<svg width="132px" height="132px" viewBox="0 0 132 132" version="1.1" xmlns="http://www.w3.org/2000/svg" xmlns:xlink="http://www.w3.org/1999/xlink">
    <!-- Generator: sketchtool 47 (45396) - http://www.bohemiancoding.com/sketch -->
    <title>EDD5E660-DBC7-41FB-8482-918C7C6184DA</title>
    <desc>Created with sketchtool.</desc>
    <defs>
        <rect id="path-1" x="0" y="0" width="124" height="124" rx="30"></rect>
        <rect id="path-2" x="0" y="0" width="124" height="124" rx="30"></rect>
    </defs>
    <g id="Symbols" stroke="none" stroke-width="1" fill="none" fill-rule="evenodd">
        <g id="Twitter" transform="translate(-14.000000, -14.000000)">
            <g transform="translate(18.000000, 18.000000)">
                <g id="Rectangle">
                    <use fill="#7FB3F5" fill-rule="evenodd" xlink:href="#path-1"></use>
                    <rect stroke="#385C84" stroke-width="4" x="-2" y="-2" width="128" height="128" rx="30"></rect>
                </g>
                <mask id="mask-3" fill="white">
                    <use xlink:href="#path-2"></use>
                </mask>
                <use id="Mask" fill="#61C0FE" xlink:href="#path-2"></use>
                <path d="M45.3009629,5.8630899 C71.772226,4.51272091 89.0469528,3.83753641 97.1251433,3.83753641 C106.530525,3.83753641 115.800877,-2.72549656 124.936198,-15.8515625 L-18.1510417,-15.8515625 L-18.4544271,127.132812 C-6.75547959,123.121466 0.822466202,112.650208 4.27941029,95.7190391 C5.59666642,76.0013646 6.39627735,59.041218 6.67824306,44.8385992 L7.0344347,46.9949044 C6.8839357,45.8468837 6.77240604,44.7485812 6.69984571,43.6999968 C6.73794593,41.5930983 6.76441319,39.5481692 6.77924746,37.5652097 C7.31323782,32.9784605 9.03052696,29.9013955 11.9311149,28.3340148 C15.1116993,27.7825634 18.9743774,25.6265295 22.3690545,22.2318524 C25.6996954,18.9012114 27.8379832,15.1200595 28.4382992,11.9746261 C30.4204503,8.6183271 34.7900885,6.64542375 41.5472137,6.05591607 C42.7123179,5.99566374 43.8607045,5.93663878 44.9923735,5.87884118 C45.1925222,5.87499602 45.3943604,5.8721295 45.5978877,5.87024166 L45.3009629,5.8630899 Z" id="Combined-Shape" fill="#9BE1FF" mask="url(#mask-3)"></path>
                <path d="M98.7244296,109.775157 C94.8334516,111.76426 90.0665969,113.071847 84.4238656,113.697917 C52.3760976,114.684462 31.6495226,115.177734 22.2441406,115.177734 C12.8387587,115.177734 5.96278212,123.049805 1.61621094,138.793945 L136.632812,136.132813 L140.451172,4.46679687 C124.741102,8.92773437 116.155816,14.9492188 114.695312,22.53125 C113.440235,52.0051172 112.43791,73.3058493 111.688336,86.4334463 C111.688336,90.9038561 110.992819,94.8330859 109.601784,98.2211358 C107.798346,99.3005707 105.854428,100.822328 103.990344,102.686412 C101.604209,105.072547 99.7789929,107.589494 98.7244296,109.775157 Z" id="Combined-Shape" fill="#4898D1" mask="url(#mask-3)"></path>
                <path d="M108.708329,116.917258 C102.84245,120.391747 96.0677918,121.408142 90.8246911,121.697917 C79.1740453,122.341822 44.4084781,122.769503 30.5074807,123.856238 C21.2401491,124.580728 12.2528465,131.339586 3.54557292,144.132813 L146.632812,144.132813 L146.936198,1.1484375 C131.226128,5.609375 123.497083,17.0227504 123.749062,35.3885638 C122.375245,53.9213613 121.688336,72.1268467 121.688336,90.00502 C121.688336,97.4043046 120.225668,103.084173 117.862752,107.443676 C116.605712,107.922565 114.648321,109.351679 112.701628,111.298372 C110.499062,113.500938 108.959077,115.7172 108.708329,116.917258 Z" id="Combined-Shape" fill="#59AAE4" mask="url(#mask-3)"></path>
                <path d="M49.3286448,91 C76.1224372,91 90.7749202,68.6880431 90.7749202,49.3399019 C90.7749202,48.7061635 90.7620784,48.075299 90.733798,47.4472843 C93.5780474,45.3805162 96.0501476,42.8013547 98,39.8653188 C95.389952,41.0314471 92.5812021,41.8164656 89.6347426,42.1704423 C92.6421945,40.3577395 94.9510923,37.490267 96.0403793,34.0719165 C93.2259113,35.7490253 90.1091019,36.9679591 86.7904932,37.6260526 C84.1323183,34.7800616 80.3479274,33 76.1575556,33 C68.1132233,33 61.5898902,39.5572266 61.5898902,47.6399467 C61.5898902,48.7889281 61.7176884,49.9065376 61.9676145,50.9785499 C49.8608516,50.3662212 39.1254657,44.5398663 31.9407458,35.6805098 C30.6897335,37.8443155 29.9683786,40.3578113 29.9683786,43.039758 C29.9683786,48.1196269 32.5400681,52.6041463 36.4507324,55.2276596 C34.060829,55.1534397 31.8157827,54.4940099 29.8535413,53.3963971 C29.851397,53.4578287 29.851397,53.5177205 29.851397,53.5833766 C29.851397,60.6744061 34.8725528,66.5948531 41.5378839,67.9364251 C40.3138417,68.271842 39.0259956,68.4516922 37.6967891,68.4516922 C36.759602,68.4516922 35.8465259,68.3589748 34.9590381,68.1876406 C36.8135422,74.0053502 42.1911702,78.2388936 48.5667872,78.3571972 C43.5811309,82.285163 37.3005764,84.6246519 30.4746636,84.6246519 C29.3003207,84.6246519 28.1402014,84.5575111 27,84.4219696 C33.4468543,88.5755265 41.1018832,90.9990732 49.329431,90.9990732" id="Shape" fill="#FFFFFF" fill-rule="nonzero" mask="url(#mask-3)"></path>
            </g>
        </g>
    </g>
</svg>