<svg width="20" height="24" viewBox="0 0 20 24" version="1.1" xmlns="http://www.w3.org/2000/svg" xmlns:xlink="http://www.w3.org/1999/xlink">
<title>User Group</title>
<desc>Created using Figma</desc>
<g id="Canvas" transform="translate(-3870 5843)">
<g id="User Group">
<g id="guy L">
<g id="Subtraction 1">
<use xlink:href="#path0_fill" transform="translate(3870 -5839.71)" fill="#969696" fill-opacity="0.6"/>
</g>
</g>
<g id="guy R">
<g id="Subtraction 2">
<use xlink:href="#path1_fill" transform="translate(3882.96 -5839.71)" fill="#969696" fill-opacity="0.6"/>
</g>
</g>
<g id="guy">
<g id="Path 1">
<use xlink:href="#path2_fill" transform="translate(3875.26 -5843)" fill="#969696"/>
</g>
<g id="Union 1">
<use xlink:href="#path3_fill" transform="translate(3874.21 -5832.09)" fill="#969696"/>
</g>
</g>
</g>
</g>
<defs>
<path id="path0_fill" d="M 3.17961 18.5318L 2.5 18.5318C 2.17162 18.5321 1.84641 18.4653 1.54297 18.3352C 1.23953 18.2051 0.963822 18.0142 0.73162 17.7736C 0.499418 17.5329 0.315263 17.2472 0.189724 16.9327C 0.0641852 16.6183 -0.000275995 16.2812 8.88004e-07 15.9409L 8.88004e-07 13.5573C -0.000356685 12.9168 0.122107 12.2827 0.360301 11.6917C 0.598496 11.1007 0.947659 10.5647 1.38749 10.1148C 2.27801 9.19907 3.48237 8.68637 4.73685 8.68895C 4.88869 8.68895 5.04183 8.69646 5.19236 8.71119C 4.87614 9.05649 4.5923 9.43212 4.34461 9.83304C 4.09248 10.2414 3.878 10.6735 3.70407 11.1236C 3.34078 12.0659 3.15539 13.0717 3.1579 14.0864L 3.1579 18.1227C 3.15793 18.2594 3.16518 18.396 3.17961 18.5318ZM 4.73685 7.62273C 3.78661 7.62296 2.87304 7.24268 2.18696 6.56133C 1.50087 5.87998 1.09534 4.95025 1.05507 3.96634C 1.01481 2.98244 1.34291 2.02047 1.97086 1.28135C 2.59881 0.542239 3.47802 0.0831519 4.42486 -3.32919e-06C 4.08044 1.27158 4.15034 2.62539 4.62374 3.85162C 5.09713 5.07785 5.9476 6.10802 7.0433 6.78246C 6.38978 7.32757 5.57574 7.62413 4.73685 7.62273Z"/>
<path id="path1_fill" d="M 4.54303 18.532L 3.86368 18.532C 3.8781 18.3961 3.88535 18.2595 3.88539 18.1229L 3.88539 14.0865C 3.88787 13.0719 3.70247 12.0662 3.33922 11.124C 3.16532 10.6739 2.95088 10.2419 2.6988 9.83346C 2.45111 9.43255 2.16726 9.0569 1.85106 8.71159C 2.00224 8.69673 2.15539 8.68937 2.30631 8.68937C 3.56086 8.68679 4.76527 9.19952 5.6558 10.1153C 6.09554 10.5652 6.44462 11.1012 6.68276 11.6921C 6.92091 12.2831 7.04337 12.9171 7.04303 13.5575L 7.04303 15.941C 7.04331 16.2814 6.97885 16.6184 6.85331 16.9329C 6.72777 17.2474 6.54361 17.5331 6.31141 17.7737C 6.07921 18.0144 5.8035 18.2052 5.50006 18.3353C 5.19662 18.4654 4.87141 18.5322 4.54303 18.532ZM 2.30619 7.62286C 1.46736 7.62419 0.653408 7.32759 -1.31065e-05 6.78246C 0.849071 6.25809 1.55546 5.51841 2.05263 4.63308C 2.44001 3.93883 2.6896 3.17135 2.78676 2.37573C 2.88392 1.5801 2.8267 0.77238 2.61843 -1.33168e-07C 3.5656 0.0827618 4.44524 0.541708 5.07352 1.28092C 5.70181 2.02014 6.0301 2.98241 5.98979 3.96661C 5.94947 4.95082 5.54367 5.88081 4.8572 6.56218C 4.17073 7.24356 3.25672 7.62359 2.30619 7.62286Z"/>
<path id="path2_fill" d="M 4.73685 1.09357e-30C 5.6737 -6.66134e-16 6.58953 0.287913 7.3685 0.827331C 8.14747 1.36675 8.7546 2.13344 9.11312 3.03046C 9.47164 3.92748 9.56544 4.91454 9.38267 5.86681C 9.1999 6.81908 8.74876 7.69379 8.0863 8.38034C 7.42384 9.06689 6.57982 9.53444 5.66096 9.72386C 4.7421 9.91327 3.78968 9.81606 2.92413 9.4445C 2.05859 9.07294 1.31879 8.44373 0.798302 7.63644C 0.277811 6.82914 6.71977e-16 5.88002 0 4.90909C 4.38246e-16 3.60712 0.499059 2.35847 1.38739 1.43784C 2.27572 0.517206 3.48056 1.96812e-15 4.73685 4.84461e-16L 4.73685 1.09357e-30Z"/>
<path id="path3_fill" d="M 2.5 13.0909C 1.83696 13.0909 1.20107 12.8179 0.732233 12.332C 0.263392 11.8462 5.55112e-16 11.1872 2.33731e-16 10.5L 0 6.47509C 0 2.89895 2.59211 0 5.78948 0C 8.98685 0 11.579 2.89895 11.579 6.47509L 11.579 10.5C 11.579 10.8402 11.5143 11.1772 11.3887 11.4915C 11.263 11.8058 11.0789 12.0915 10.8467 12.332C 10.6146 12.5726 10.339 12.7635 10.0357 12.8937C 9.73235 13.0239 9.40726 13.0909 9.07895 13.0909L 2.5 13.0909Z"/>
</defs>
</svg>
