<svg width="23" height="15" viewBox="0 0 23 15" version="1.1" xmlns="http://www.w3.org/2000/svg" xmlns:xlink="http://www.w3.org/1999/xlink">
<title>Fill 1.1</title>
<desc>Created using Figma</desc>
<g id="Canvas" transform="translate(-2095 4552)">
<g id="Fill 1.1">
<use xlink:href="#path0_fill" transform="translate(2095 -4552)" fill="#6B6B6B"/>
</g>
</g>
<defs>
<path id="path0_fill" fill-rule="evenodd" d="M 11.4582 -3.51138e-23C 5.72972 -2.12435e-15 0.414954 2.63033 0.0261355 6.90292C -0.00872164 7.28595 -0.008702 7.70882 0.0261355 8.09206C 0.414954 12.3694 5.72972 15 11.4582 15C 17.1867 15 22.5015 12.3694 22.8904 8.09708C 22.9252 7.71398 22.9252 7.29102 22.8904 6.90794C 22.5015 2.63033 17.1867 2.29846e-15 11.4582 -3.51138e-23ZM 11.7765 12.7814C 8.83077 12.9822 6.39794 10.3516 6.58331 7.15502C 6.7353 4.51941 8.70711 2.38325 11.1399 2.21859C 14.0859 2.01777 16.5185 4.6481 16.3334 7.84498C 16.1765 10.4753 14.2047 12.6115 11.7765 12.7814ZM 11.6295 10.3413C 10.0423 10.4494 8.73098 9.03381 8.8354 7.31466C 8.91611 5.89406 9.98057 4.74616 11.2919 4.65338C 12.879 4.54534 14.1903 5.96092 14.0859 7.68007C 14.0003 9.106 12.9361 10.2538 11.6295 10.3413Z"/>
</defs>
</svg>
