<?xml version="1.0" encoding="utf-8"?>
<!-- Generator: Adobe Illustrator 17.0.0, SVG Export Plug-In . SVG Version: 6.00 Build 0)  -->
<!DOCTYPE svg PUBLIC "-//W3C//DTD SVG 1.1//EN" "http://www.w3.org/Graphics/SVG/1.1/DTD/svg11.dtd">
<svg version="1.1" id="Layer_1" xmlns="http://www.w3.org/2000/svg" xmlns:xlink="http://www.w3.org/1999/xlink" x="0px" y="0px"
	 width="591.833px" height="293.438px" viewBox="0 150.438 591.833 293.438" enable-background="new 0 150.438 591.833 293.438"
	 xml:space="preserve">
<g id="main">
	<g id="colors">
		<g id="XMLID_3_">
			<g>
				<path fill="#EBB886" d="M527.661,289.668c4.224,0,7.68,3.456,7.68,7.68c0,2.176-0.896,4.096-2.304,5.376
					c-1.408,1.408-3.328,2.304-5.376,2.304h-16.768h-15.872l0,0h-291.84l0,0H80.557H63.789c-4.224,0-7.68-3.456-7.68-7.68
					c0-2.176,0.896-4.096,2.304-5.376c1.408-1.408,3.328-2.304,5.376-2.304h27.904h55.936H291.5h72.32h49.536h28.8h48.64h11.392
					H527.661z"/>
				<path fill="#EBB886" d="M510.765,305.028v120.576c0,4.352-3.584,7.936-7.936,7.936s-7.936-3.584-7.936-7.936V305.028H510.765z"
					/>
				<polygon fill="#48FFFF" points="508.844,260.612 508.077,269.572 484.525,269.572 483.885,260.612 				"/>
				<polygon fill="#D2FFFE" points="508.077,269.572 507.565,275.46 485.036,275.46 484.525,269.572 				"/>
				<path fill="#48FFFF" d="M507.565,275.46l-0.64,8.704c-0.256,3.072-2.304,5.504-4.864,5.504h-11.392
					c-2.56,0-4.608-2.304-4.864-5.504l-0.64-8.704H507.565z"/>
				<rect x="203.18" y="305.028" fill="#EBB886" width="291.84" height="28.288"/>
				<path fill="#E2E2E2" d="M441.901,289.668h-28.8c0.256-5.76,6.656-10.24,14.336-10.24S441.645,283.908,441.901,289.668z"/>
				<path fill="#E2E2E2" d="M405.549,244.868v11.136c0,5.632-4.608,10.24-10.24,10.24h-5.888l-0.768-10.24l-24.448,1.792l0.64,8.32
					l-1.152,0.128h-22.4h-27.52h-27.52l0.64-4.352l-22.656-3.072l-1.024,7.424h-0.384h-3.072c-5.632,0-10.24-4.608-10.24-10.24
					v-9.344v-1.792L405.549,244.868L405.549,244.868z"/>
				<path fill="#E2E2E2" d="M405.549,171.14v73.728h-156.16v-73.856c0-5.632,4.608-10.24,10.24-10.24h135.68
					C400.94,160.9,405.549,165.508,405.549,171.14z M397.997,237.828v-65.152c0-2.688-2.176-4.864-4.864-4.864H261.549
					c-2.688,0-4.864,2.176-4.864,4.864v65.152H397.997z"/>
				<path fill="#51576B" d="M397.997,172.676v65.152H256.813v-65.152c0-2.688,2.176-4.864,4.864-4.864H393.26
					C395.82,167.94,397.997,170.116,397.997,172.676z"/>
				<path fill="#D1F7C9" d="M394.669,272.516c0.256,2.688-1.792,4.992-4.48,5.248l-19.584,1.408c2.688-0.256,4.736-2.56,4.48-5.248
					l9.856-0.768l4.864-0.384L394.669,272.516z"/>
				<path fill="#D1F7C9" d="M389.421,268.037l0.384,4.864l-4.864,0.384l-9.856,0.768c0.256,2.688-1.792,4.992-4.48,5.248
					s-4.992-1.792-5.248-4.48l-0.64-8.576l-0.64-8.32l24.448-1.792l0.768,10.24L389.421,268.037z"/>
				<path fill="#E2E2E2" d="M363.565,289.668h-72.32c0-4.48,3.072-8.064,6.912-8.064c5.504,0,9.856-2.304,12.928-6.4
					c1.792-2.432,1.792-5.376,2.56-8.96h27.52c2.048,9.344,6.784,15.36,15.488,15.36c1.92,0,3.584,0.896,4.864,2.304
					C362.797,285.444,363.565,287.365,363.565,289.668z"/>
				<path fill="#FFF5DE" d="M286.765,261.892l-0.64,4.352l-1.536,11.264c-0.384,2.432-2.56,4.224-5.12,3.84
					c-2.432-0.384-4.224-2.56-3.84-5.12l-9.216-1.28l-4.48-0.64l0.64-4.48l0.512-3.712l1.024-7.424L286.765,261.892z"/>
				<path fill="#FFF5DE" d="M279.596,281.477l-18.176-2.432c-2.432-0.384-4.224-2.56-3.84-5.12l4.48,0.64l4.48,0.64l9.216,1.28
					C275.372,278.788,277.036,281.092,279.596,281.477z"/>
				<path fill="#FF7382" d="M223.533,254.085v23.808c0,5.76-4.736,10.496-10.496,10.496h-9.728c-5.76,0-10.496-4.736-10.496-10.496
					v-23.808H223.533z"/>
				<path fill="#EBB886" d="M203.053,369.284v64.256H80.428v-64.256H203.053z M187.309,420.868v-39.04H96.301v39.04H187.309z"/>
				<path fill="#EBB886" d="M203.053,305.028v64.256H80.428v-64.256L203.053,305.028L203.053,305.028z M187.309,356.612V317.7
					H96.301v38.912H187.309z"/>
				<rect x="96.173" y="381.956" fill="#EBB886" width="91.008" height="39.04"/>
				<rect x="96.173" y="317.7" fill="#EBB886" width="91.008" height="39.04"/>
				<path fill="#00D3FF" d="M149.677,178.948l11.008,11.008l-7.936,7.936l-13.312,13.312l-7.936,7.936l-11.008-11.008
					c-5.888-5.888-7.552-14.464-4.736-21.76l0,0l12.288-12.288l0,0c2.304-0.896,4.736-1.28,7.168-1.28
					C140.333,172.932,145.709,174.852,149.677,178.948z"/>
				<path fill="#FFE499" d="M152.749,197.892c1.664,1.664,2.688,3.968,2.688,6.528c0,5.248-4.224,9.472-9.472,9.472
					c-2.56,0-4.864-1.024-6.528-2.688L152.749,197.892z"/>
				<path fill="#00D3FF" d="M147.372,286.852v2.816H91.436v-2.816c0-4.992,4.096-9.088,9.088-9.088h7.68h22.4h7.68
					C143.277,277.765,147.372,281.732,147.372,286.852z"/>
				<path fill="#00D3FF" d="M130.605,277.765h-22.4c0-6.144,4.992-11.264,11.264-11.264
					C125.613,266.5,130.605,271.492,130.605,277.765z"/>
				<path fill="#00D3FF" d="M127.917,174.212L115.629,186.5c-3.328-3.328-3.328-8.832,0-12.288
					C119.085,170.757,124.589,170.757,127.917,174.212L127.917,174.212L127.917,174.212z"/>
				<path fill="#BEE1E5" d="M80.428,217.86c4.992,0,8.96,3.968,8.96,8.96c0,4.864-3.968,8.832-8.96,8.832
					c-4.864,0-8.832-3.968-8.832-8.832C71.469,221.828,75.565,217.86,80.428,217.86z"/>
			</g>
		</g>
	</g>
	<g id="shadows">
		<rect x="203.053" y="307.205" opacity="0.35" fill="#141414" enable-background="new    " width="291.328" height="25.6"/>
		<path opacity="0.35" fill="#FFFFFF" enable-background="new    " d="M223.533,254.085h-30.208v4.48h5.888v8.832
			c0,2.432,2.048,4.48,4.48,4.48s4.48-2.048,4.48-4.48v-8.832h15.36V254.085z"/>
		<polygon opacity="0.15" fill="#FFFFFF" enable-background="new    " points="292.781,167.94 257.069,203.525 257.069,227.716 
			316.973,167.94 		"/>
		<polygon opacity="0.15" fill="#FFFFFF" enable-background="new    " points="332.589,167.94 261.933,238.597 310.956,238.597 
			381.997,167.429 		"/>
		<polygon opacity="0.5" fill="#FFFFFF" enable-background="new    " points="267.181,244.868 252.204,259.972 252.204,263.812 
			254.765,266.372 263.085,266.372 264.109,258.82 269.357,259.588 284.205,244.612 		"/>
		<polygon opacity="0.5" fill="#FFFFFF" enable-background="new    " points="287.917,246.149 273.708,260.357 277.549,260.357 
			292.268,245.765 		"/>
		<path opacity="0.08" fill="#141414" enable-background="new    " d="M370.861,257.284l17.664-1.28l0.768,10.24h5.888l7.936-3.712
			l2.304-6.528v-11.136h-8.32h-7.296c-0.64,2.432-2.304,4.608-4.224,6.4C381.741,254.852,375.981,256.9,370.861,257.284"/>
		<rect x="287.021" y="261.765" opacity="0.12" fill="#141414" enable-background="new    " width="77.056" height="3.84"/>
		<path opacity="0.08" fill="#141414" enable-background="new    " d="M365.741,276.228c2.688,0,18.048-1.92,18.816-19.968
			l3.968-0.256l1.28,16.512h4.864l-0.512,2.56l-2.816,2.688l-20.736,1.536L365.741,276.228z"/>
		<path opacity="0.3" fill="#FFFFFF" enable-background="new    " d="M365.229,272.516l0.512-1.92
			c1.536-5.504,5.632-9.984,11.136-11.776l6.144-2.048l-18.816,1.024L365.229,272.516z"/>
		<path opacity="0.08" fill="#141414" enable-background="new    " d="M261.549,274.436c11.264,2.432,21.376,2.048,24.832-12.8
			l-2.816,18.176l-3.456,1.536l-20.736-3.2l-2.048-3.968L261.549,274.436z"/>
		<path fill="#FFFFFF" d="M262.445,270.852l1.664-12.032l13.056,1.792l-3.584,0.384c-4.224,0.512-8.064,3.2-9.728,7.04
			L262.445,270.852z"/>
		<rect x="313.645" y="265.22" opacity="0.25" fill="#141414" enable-background="new    " width="27.776" height="8.192"/>
		<rect x="80.428" y="304.772" opacity="0.25" fill="#141414" enable-background="new    " width="122.752" height="7.296"/>
		<path opacity="0.08" fill="#141414" enable-background="new    " d="M114.989,198.405c17.92,15.488,40.32-1.664,38.912-15.36
			l6.784,6.784c-6.016,6.016-12.032,12.032-18.176,18.176c-3.712,3.712-7.424,7.424-11.136,11.136
			c-5.248-5.632-10.496-11.136-15.744-16.64L114.989,198.405z"/>
		<path opacity="0.15" fill="#141414" enable-background="new    " d="M139.437,278.405c0-0.128,0-0.384,0-0.64l1.024,0.64H139.437z
			"/>
		<path opacity="0.08" fill="#141414" enable-background="new    " d="M145.837,281.732l-1.28-0.768l-4.096-2.56h-1.024
			c0,1.408-1.024,2.688-2.816,3.584c-8.064,4.48-31.488,3.84-45.056,3.2l-0.64,4.48h57.344L145.837,281.732z"/>
		<path opacity="0.5" fill="#FFFFFF" enable-background="new    " d="M94.253,278.405h45.184c0,1.408-1.024,2.688-2.816,3.584
			H94.252L94.253,278.405L94.253,278.405z"/>
		<polygon opacity="0.3" fill="#FFFFFF" enable-background="new    " points="144.557,278.405 144.557,280.965 140.461,278.405 		
			"/>
		<path opacity="0.1" fill="#141414" enable-background="new    " d="M403.757,305.028c35.2,0.384,67.072-1.408,68.096-15.36h60.544
			l2.816,7.68l-3.84,6.656l-56.064,1.024H403.757z"/>
		<path opacity="0.15" fill="#141414" enable-background="new    " d="M496.301,302.98H335.276c-5.376-0.256-10.88-0.384-16.256,0
			h-115.84v9.088h162.944c11.52,0,22.912,3.712,31.872,10.88c3.328,2.688,6.016,5.504,7.68,8.32h89.344l0.896-19.2h0.384
			L496.301,302.98L496.301,302.98z"/>
		<polygon opacity="0.3" fill="#FFFFFF" enable-background="new    " points="125.357,433.54 80.428,433.54 125.229,433.54 		"/>
		<path opacity="0.1" fill="#141414" enable-background="new    " d="M187.309,349.317c7.04-0.768,12.416-3.072,15.744-4.864v24.704
			h-71.168H80.428v-7.04c24.96,0.128,106.88-5.504,106.88-5.504V349.317L187.309,349.317z"/>
		<path opacity="0.35" fill="#FFFFFF" enable-background="new    " d="M91.821,429.445c-2.304-0.256-4.352-1.408-5.76-3.072
			c-1.152-1.408-1.92-3.072-2.048-4.864l-3.712-37.632v42.624v7.04h44.8L91.821,429.445z"/>
		<path opacity="0.1" fill="#141414" enable-background="new    " d="M203.053,408.836v24.704h-77.824l-33.408-4.096
			c-2.304-0.256-4.352-1.408-5.76-3.072c29.824-0.512,101.12-5.504,101.12-5.504v-7.296
			C194.349,412.805,199.725,410.5,203.053,408.836z"/>
		<path opacity="0.08" fill="#141414" enable-background="new    " d="M509.229,260.612h-6.144c0.128,1.536,0.256,3.072,0.256,4.48
			c-0.128,5.76-1.92,11.008-4.736,15.232c-1.536,2.304-4.224,3.712-6.912,3.712h-3.968v4.992c-0.512,0.128-1.152,0.384-1.664,0.512
			l-1.024,0.128h2.688l0,0h19.2v-5.76l0,0l1.92-18.816L509.229,260.612z"/>
		<path opacity="0.3" fill="#FFFFFF" enable-background="new    " d="M503.213,260.612c0.128,1.536,0.256,3.072,0.256,4.48h-19.584
			v-4.48H503.213z"/>
		<polygon fill="#141414" points="509.229,260.612 509.229,265.092 508.844,265.092 		"/>
		<rect x="291.245" y="282.884" opacity="0.5" fill="#FFFFFF" enable-background="new    " width="70.528" height="6.784"/>
		<path opacity="0.35" fill="#FFFFFF" enable-background="new    " d="M141.357,174.085l-11.008-1.152l-5.12,4.352l0,0
			c0,0.384,0,0.896,0.128,1.28l-2.304-0.512l-9.216,9.984l0.512,7.04l8.96-9.216c1.536-1.664,4.224-1.664,5.76,0
			c0.128,0.128,0.384,0.384,0.512,0.512c1.92,1.536,4.352,2.432,7.04,2.432c4.352,0,8.192-2.432,10.112-6.144
			c0.64-1.152,1.024-2.56,1.28-3.84L141.357,174.085z"/>
		<path opacity="0.15" fill="#FFFFFF" enable-background="new    " d="M388.013,326.917h-77.696h-9.216h-77.696
			c-3.584,0-9.344,0.64-14.208,6.4h91.904h9.216h91.904C397.357,327.556,391.596,326.917,388.013,326.917z"/>
		<circle opacity="0.25" fill="#141414" enable-background="new    " cx="80.428" cy="226.821" r="2.304"/>
		<path opacity="0.3" fill="#FFFFFF" enable-background="new    " d="M73.901,229.637c0-4.352,3.584-7.936,7.936-7.936
			s7.936,3.584,7.936,7.936l-2.304-9.344l-7.552-3.2l-6.144,3.712l-2.432,5.504L73.901,229.637z"/>
		<path opacity="0.15" fill="#141414" enable-background="new    " d="M86.573,222.212c1.024,4.224-1.664,8.576-5.888,9.6
			s-8.576-1.664-9.6-5.888l4.352,8.576l8.064,1.408l5.12-4.992l1.024-6.016L86.573,222.212z"/>
		<path opacity="0.15" fill="#141414" enable-background="new    " d="M147.372,209.157l7.552-7.552l-2.176-3.84l-9.216,9.344
			c-0.128-0.128-0.128-0.128-0.256-0.256l-1.92,2.304l0,0l0,0l-1.152,1.408l-0.768,1.024l3.584,1.536l7.808-0.64l4.224-3.968v-1.792
			C153.645,208.772,150.316,209.796,147.372,209.157z"/>
		<ellipse opacity="0.35" fill="#FFFFFF" enable-background="new    " cx="134.061" cy="179.589" rx="4.096" ry="2.56"/>
		<polygon opacity="0.5" fill="#FFFFFF" enable-background="new    " points="114.477,185.732 113.197,179.077 120.493,169.86 
			126.125,173.7 		"/>
		
			<ellipse transform="matrix(-0.9208 0.39 -0.39 -0.9208 330.1036 474.4525)" opacity="0.5" fill="#FFFFFF" enable-background="new    " cx="116.885" cy="270.739" rx="4.992" ry="2.688"/>
		<path opacity="0.35" fill="#FFFFFF" enable-background="new    " d="M535.724,294.788c-0.128,0-0.128,0-0.256,0H66.349
			c-2.176,0-4.096,0.896-5.376,2.304c-1.408,1.408-2.304,3.328-2.304,5.376c0,1.408-2.816-11.52,1.28-11.52h469.12
			C532.013,290.948,534.445,292.485,535.724,294.788z"/>
		<rect x="494.38" y="304.645" opacity="0.25" fill="#141414" enable-background="new    " width="16.512" height="8.96"/>
		<path opacity="0.1" fill="#141414" enable-background="new    " d="M495.021,406.404c0,8.064,15.872,7.552,15.872-37.12
			c0,45.824,0,64.256,0,64.256h-7.936h-7.936L495.021,406.404L495.021,406.404z"/>
		<path opacity="0.1" fill="#141414" enable-background="new    " d="M97.453,411.909c0,5.76,89.856,7.424,89.856-19.456
			c0,36.096,0,28.416,0,28.416H97.453V411.909z"/>
		<path opacity="0.1" fill="#141414" enable-background="new    " d="M97.453,347.908c0,5.76,89.856,7.424,89.856-19.456
			c0,36.096,0,28.416,0,28.416H97.453V347.908z"/>
		<path opacity="0.35" fill="#FFFFFF" enable-background="new    " d="M187.309,381.956H96.301v3.584h-0.256l2.816,24.832
			l3.2-19.712c0.256-1.792,1.792-3.072,3.584-3.072h81.792v-5.632L187.309,381.956L187.309,381.956z"/>
		<path opacity="0.35" fill="#FFFFFF" enable-background="new    " d="M187.309,317.7H96.301v5.632l1.152,21.248l4.224-18.432
			c0.384-1.664,1.792-2.816,3.456-2.816h82.176V317.7L187.309,317.7z"/>
		<path opacity="0.35" fill="#FFFFFF" enable-background="new    " d="M203.693,370.052H80.941v4.352l1.664,15.104l2.56-12.032
			c0.384-1.792,1.92-3.072,3.84-3.072h114.688V370.052z"/>
		<path opacity="0.05" fill="#141414" enable-background="new    " d="M194.733,276.357c0,4.864,27.008,7.296,27.008-11.52
			c0,13.056,0,18.816,0,18.816l-4.352,3.712h-20.224l-5.248-6.4l1.408-3.2L194.733,276.357z"/>
		<path opacity="0.75" fill="#FFFFFF" enable-background="new    " d="M266.54,270.085h-3.072c-3.84,0-7.168-2.048-8.96-5.248
			c-0.896-1.536-1.28-3.2-1.28-4.992v-9.344v-78.08c0-4.224,3.456-7.68,7.68-7.68h138.24c1.792,0,3.584,0.512,5.12,1.28
			c-1.792-3.072-5.12-5.12-8.96-5.12h-135.68c-5.632,0-10.24,4.608-10.24,10.24v75.52v9.344c0,3.84,2.048,7.168,5.12,8.832
			c1.536,0.896,3.2,1.408,5.12,1.408h3.072"/>
		<path opacity="0.75" fill="#FFFFFF" enable-background="new    " d="M400.557,172.676v65.536c0,1.28-1.024,2.176-2.176,2.176
			H259.372c-2.176,0-3.84-1.664-3.84-3.84l0,0h141.184v-67.712c0-0.256,0-0.64-0.128-0.896
			C398.893,168.452,400.557,170.372,400.557,172.676z"/>
		
			<ellipse transform="matrix(-0.9798 0.1999 -0.1999 -0.9798 895.4438 475.3257)" opacity="0.5" fill="#FFFFFF" enable-background="new    " cx="423.725" cy="282.87" rx="6.4" ry="2.304"/>
		<path opacity="0.59" fill="#FFFFFF" enable-background="new    " d="M492.077,264.58h1.152c1.792,0,3.2,1.408,3.2,3.072v7.68
			c0,1.792-1.408,3.072-3.2,3.072l0,0c-1.536,0-2.816-1.152-3.072-2.688l-1.152-7.68C488.62,266.372,490.156,264.58,492.077,264.58z
			"/>
	</g>
	<g id="lines">
		<path fill="none" stroke="#3A4061" stroke-width="2" stroke-linecap="round" stroke-linejoin="round" stroke-miterlimit="10" d="
			M155.437,204.42c0,5.248-4.224,9.472-9.472,9.472c-2.56,0-4.864-1.024-6.528-2.688l13.312-13.312
			C154.413,199.556,155.437,201.86,155.437,204.42z"/>
		<path fill="none" stroke="#3A4061" stroke-width="4" stroke-linecap="round" stroke-linejoin="round" stroke-miterlimit="10" d="
			M85.677,219.652"/>
		<path fill="none" stroke="#3A4061" stroke-width="2" stroke-linecap="round" stroke-linejoin="round" stroke-miterlimit="10" d="
			M115.757,174.212C91.565,167.3,83.245,202.5,83.5,218.628"/>
		<path fill="none" stroke="#3A4061" stroke-width="2" stroke-linecap="round" stroke-linejoin="round" stroke-miterlimit="10" d="
			M77.229,235.14c-1.792,15.872,12.288,15.744,21.76,16.128c13.568,0.512,21.632,3.584,21.632,15.36"/>
		<circle fill="#F0F0F2" stroke="#3A4061" stroke-miterlimit="10" cx="327.341" cy="256.005" r="4.096"/>
		<path fill="none" stroke="#3A4061" stroke-width="6" stroke-linecap="round" stroke-linejoin="round" stroke-miterlimit="10" d="
			M129.965,401.412c7.424,0,14.976,0,22.4,0"/>
		<path fill="none" stroke="#3A4061" stroke-width="6" stroke-linecap="round" stroke-linejoin="round" stroke-miterlimit="10" d="
			M129.965,337.157c7.424,0,14.976,0,22.4,0"/>
		<path fill="none" stroke="#3A4061" stroke-width="2" stroke-linecap="round" stroke-linejoin="round" stroke-miterlimit="10" d="
			M393.26,167.94H261.549c-2.688,0-4.864,2.176-4.864,4.864v65.152h141.312v-65.152C397.997,170.116,395.82,167.94,393.26,167.94z"
			/>
		
			<line fill="none" stroke="#3A4061" stroke-width="2" stroke-linecap="round" stroke-linejoin="round" stroke-miterlimit="10" x1="298.156" y1="282.884" x2="317.612" y2="282.884"/>
		
			<line fill="none" stroke="#3A4061" stroke-width="2" stroke-linecap="round" stroke-linejoin="round" stroke-miterlimit="10" x1="323.885" y1="282.884" x2="327.341" y2="282.884"/>
		
			<line fill="none" stroke="#3A4061" stroke-width="2" stroke-linecap="round" stroke-linejoin="round" stroke-miterlimit="10" x1="508.205" y1="269.572" x2="484.396" y2="269.572"/>
		
			<line fill="none" stroke="#3A4061" stroke-width="2" stroke-linecap="round" stroke-linejoin="round" stroke-miterlimit="10" x1="507.82" y1="275.46" x2="484.781" y2="275.46"/>
		
			<line fill="none" stroke="#3A4061" stroke-width="2" stroke-linecap="round" stroke-linejoin="round" stroke-miterlimit="10" x1="266.285" y1="305.028" x2="249.005" y2="322.308"/>
		
			<line fill="none" stroke="#3A4061" stroke-width="2" stroke-linecap="round" stroke-linejoin="round" stroke-miterlimit="10" x1="276.268" y1="305.028" x2="267.181" y2="314.116"/>
		
			<line fill="none" stroke="#3A4061" stroke-width="2" stroke-linecap="round" stroke-linejoin="round" stroke-miterlimit="10" x1="195.501" y1="369.284" x2="195.501" y2="383.236"/>
		
			<line fill="none" stroke="#3A4061" stroke-width="2" stroke-linecap="round" stroke-linejoin="round" stroke-miterlimit="10" x1="424.492" y1="333.317" x2="430.765" y2="326.917"/>
		<path fill="none" stroke="#3A4061" stroke-width="2" stroke-linecap="round" stroke-linejoin="round" stroke-miterlimit="10" d="
			M466.989,305.028"/>
		<path fill="none" stroke="#3A4061" stroke-width="2" stroke-linejoin="round" stroke-miterlimit="10" d="M389.805,272.9
			l-0.384-4.864l-0.896-12.032l-24.448,1.792l1.28,16.896c0.256,2.688,2.56,4.736,5.248,4.48c2.688-0.256,4.736-2.56,4.48-5.248
			l9.856-0.768L389.805,272.9l4.864-0.384c0.256,2.688-1.792,4.992-4.48,5.248l-19.584,1.408"/>
		<path fill="none" stroke="#3A4061" stroke-width="2" stroke-linejoin="round" stroke-miterlimit="10" d="M279.596,281.477
			l-18.176-2.432c-2.432-0.384-4.224-2.56-3.84-5.12l4.48,0.64l4.48,0.64l9.216,1.28
			C275.372,278.788,277.036,281.092,279.596,281.477c2.56,0.384,4.736-1.408,5.12-3.84l2.048-15.744l-22.656-3.072l-1.536,11.264
			l-0.64,4.48"/>
		
			<line fill="none" stroke="#3A4061" stroke-width="2" stroke-linejoin="round" stroke-miterlimit="10" x1="368.429" y1="263.812" x2="385.325" y2="262.532"/>
		
			<line fill="none" stroke="#3A4061" stroke-width="2" stroke-linejoin="round" stroke-miterlimit="10" x1="369.325" y1="269.188" x2="378.029" y2="268.548"/>
		
			<line fill="none" stroke="#3A4061" stroke-width="2" stroke-linejoin="round" stroke-miterlimit="10" x1="380.333" y1="268.42" x2="385.581" y2="267.908"/>
		<g>
			
				<line fill="none" stroke="#3A4061" stroke-width="3.5" stroke-linejoin="round" stroke-miterlimit="10" x1="363.565" y1="266.245" x2="285.741" y2="266.245"/>
			<path fill="none" stroke="#3A4061" stroke-width="3.5" stroke-linejoin="round" stroke-miterlimit="10" d="M262.701,266.245
				h-3.072c-5.632,0-10.24-4.608-10.24-10.24v-9.344v-75.52c0-5.632,4.608-10.24,10.24-10.24h135.68
				c5.632,0,10.24,4.608,10.24,10.24v84.864c0,5.632-4.608,10.24-10.24,10.24h-7.04"/>
			
				<line fill="none" stroke="#3A4061" stroke-width="3.5" stroke-linecap="round" stroke-linejoin="round" stroke-miterlimit="10" x1="405.421" y1="244.868" x2="249.26" y2="244.868"/>
			
				<path fill="none" stroke="#3A4061" stroke-width="3.5" stroke-linecap="round" stroke-linejoin="round" stroke-miterlimit="10" d="
				M130.605,277.765h7.68c4.992,0,9.088,4.096,9.088,9.088v2.816H91.437v-2.816c0-4.992,4.096-9.088,9.088-9.088h7.68"/>
			
				<path fill="none" stroke="#3A4061" stroke-width="3.5" stroke-linecap="round" stroke-linejoin="round" stroke-miterlimit="10" d="
				M130.605,277.765h-22.4c0-6.144,4.992-11.264,11.264-11.264C125.741,266.501,130.605,271.492,130.605,277.765z"/>
			
				<path fill="none" stroke="#3A4061" stroke-width="3.5" stroke-linecap="round" stroke-linejoin="round" stroke-miterlimit="10" d="
				M127.917,174.212L115.629,186.5c-3.328-3.328-3.328-8.832,0-12.288C119.085,170.757,124.589,170.757,127.917,174.212z"/>
			
				<circle fill="none" stroke="#3A4061" stroke-width="3.5" stroke-linecap="round" stroke-linejoin="round" stroke-miterlimit="10" cx="80.428" cy="226.821" r="8.96"/>
			
				<line fill="none" stroke="#3A4061" stroke-width="3.5" stroke-linecap="round" stroke-linejoin="round" stroke-miterlimit="10" x1="114.733" y1="267.525" x2="83.117" y2="236.037"/>
			
				<path fill="none" stroke="#3A4061" stroke-width="3.5" stroke-linecap="round" stroke-linejoin="round" stroke-miterlimit="10" d="
				M115.629,186.372c-2.688,7.296-1.152,15.872,4.736,21.76l11.008,11.008l7.936-7.936l13.312-13.312l7.936-7.936l-11.008-11.008
				c-4.096-3.968-9.344-6.016-14.592-6.016c-2.432,0-4.864,0.384-7.168,1.28"/>
			
				<line fill="none" stroke="#3A4061" stroke-width="3.5" stroke-linecap="round" stroke-linejoin="round" stroke-miterlimit="10" x1="83.629" y1="218.5" x2="115.629" y2="186.372"/>
			
				<path fill="none" stroke="#3A4061" stroke-width="3.5" stroke-linecap="round" stroke-linejoin="round" stroke-miterlimit="10" d="
				M213.036,288.388h-9.728c-5.76,0-10.496-4.736-10.496-10.496v-23.936h30.72v23.936
				C223.533,283.652,218.797,288.388,213.036,288.388z"/>
			
				<path fill="none" stroke="#3A4061" stroke-width="3.5" stroke-linecap="round" stroke-linejoin="round" stroke-miterlimit="10" d="
				M527.661,305.028h-464c-4.224,0-7.68-3.456-7.68-7.68l0,0c0-4.224,3.456-7.68,7.68-7.68h464c4.224,0,7.68,3.456,7.68,7.68l0,0
				C535.341,301.572,531.885,305.028,527.661,305.028z"/>
			
				<path fill="none" stroke="#3A4061" stroke-width="3.5" stroke-linecap="round" stroke-linejoin="round" stroke-miterlimit="10" d="
				M223.533,277.765h2.816c2.304,0,4.352-0.896,5.888-2.432s2.432-3.584,2.432-5.888c0-4.608-3.712-8.32-8.32-8.32h-2.816"/>
			
				<rect x="80.428" y="305.028" fill="none" stroke="#3A4061" stroke-width="3.5" stroke-linecap="round" stroke-linejoin="round" stroke-miterlimit="10" width="122.624" height="128.512"/>
			
				<line fill="none" stroke="#3A4061" stroke-width="3.5" stroke-linecap="round" stroke-linejoin="round" stroke-miterlimit="10" x1="203.053" y1="369.284" x2="80.428" y2="369.284"/>
			
				<rect x="96.173" y="381.957" fill="none" stroke="#3A4061" stroke-width="3.5" stroke-linecap="round" stroke-linejoin="round" stroke-miterlimit="10" width="91.008" height="38.912"/>
			
				<rect x="96.173" y="317.7" fill="none" stroke="#3A4061" stroke-width="3.5" stroke-linecap="round" stroke-linejoin="round" stroke-miterlimit="10" width="91.008" height="38.912"/>
			
				<path fill="none" stroke="#3A4061" stroke-width="3.5" stroke-linecap="round" stroke-linejoin="round" stroke-miterlimit="10" d="
				M341.164,266.245c2.048,9.344,6.784,15.36,15.488,15.36c1.92,0,3.584,0.896,4.864,2.304c1.28,1.536,2.048,3.456,2.048,5.76
				h-72.32c0-4.48,3.072-8.064,6.912-8.064c5.504,0,9.856-2.304,12.928-6.4c1.792-2.432,1.792-5.376,2.56-8.96"/>
			
				<rect x="495.021" y="305.028" fill="none" stroke="#3A4061" stroke-width="3.5" stroke-linecap="round" stroke-linejoin="round" stroke-miterlimit="10" width="15.872" height="128.512"/>
			
				<rect x="203.18" y="305.028" fill="none" stroke="#3A4061" stroke-width="3.5" stroke-miterlimit="10" width="291.84" height="28.288"/>
			
				<path fill="none" stroke="#3A4061" stroke-width="3.5" stroke-linecap="round" stroke-linejoin="round" stroke-miterlimit="10" d="
				M490.541,289.668h11.392c2.56,0,4.608-2.304,4.864-5.504l1.92-23.552h-24.96l1.92,23.552
				C485.932,287.365,488.109,289.668,490.541,289.668z"/>
			
				<line fill="none" stroke="#3A4061" stroke-width="3.5" stroke-linecap="round" stroke-linejoin="round" stroke-miterlimit="10" x1="49.709" y1="433.54" x2="553.005" y2="433.54"/>
			
				<line fill="none" stroke="#3A4061" stroke-width="3.5" stroke-linecap="round" stroke-linejoin="round" stroke-miterlimit="10" x1="40.109" y1="433.54" x2="29.868" y2="433.54"/>
			
				<line fill="none" stroke="#3A4061" stroke-width="3.5" stroke-linecap="round" stroke-linejoin="round" stroke-miterlimit="10" x1="561.965" y1="433.54" x2="561.965" y2="433.54"/>
			
				<path fill="none" stroke="#3A4061" stroke-width="3.5" stroke-linecap="round" stroke-linejoin="round" stroke-miterlimit="10" d="
				M413.101,289.668c0.256-5.632,6.656-10.24,14.336-10.24s14.08,4.608,14.464,10.24"/>
			
				<line fill="none" stroke="#3A4061" stroke-width="3.5" stroke-linecap="round" stroke-linejoin="round" stroke-miterlimit="10" x1="506.924" y1="239.236" x2="503.981" y2="260.612"/>
			
				<line fill="none" stroke="#3A4061" stroke-width="3.5" stroke-linecap="round" stroke-linejoin="round" stroke-miterlimit="10" x1="495.148" y1="260.612" x2="495.148" y2="245.892"/>
		</g>
		
			<line fill="none" stroke="#3A4061" stroke-width="2" stroke-linejoin="round" stroke-miterlimit="10" x1="266.54" y1="269.444" x2="277.549" y2="270.852"/>
		
			<line fill="none" stroke="#3A4061" stroke-width="2" stroke-linejoin="round" stroke-miterlimit="10" x1="267.437" y1="264.709" x2="280.877" y2="266.5"/>
		
			<line fill="none" stroke="#3A4061" stroke-width="2" stroke-linecap="round" stroke-linejoin="round" stroke-miterlimit="10" x1="137.005" y1="203.268" x2="137.005" y2="203.268"/>
		
			<line fill="none" stroke="#3A4061" stroke-width="2" stroke-linecap="round" stroke-linejoin="round" stroke-miterlimit="10" x1="133.805" y1="206.468" x2="126.509" y2="213.892"/>
	</g>
</g>
</svg>
