<svg version="1" xmlns="http://www.w3.org/2000/svg" width="346.667" height="346.667" viewBox="0 0 260.000000 260.000000"><path d="M53.7 54.9l-4.2 4-.3 66.6-.2 66.6 2.9 3c2 1.9 4 2.9 6 2.9 3.7 0 7.7-1.8 8.8-3.9.4-.9 1-28.6 1.3-61.6l.5-60L78.4 97c29.2 72.4 37.9 93.5 39.2 95.5 4.4 6.8 16.9 7.2 22.6.9 1.2-1.5 45-108.2 48.2-117.8.4-1 .9-1.6 1.2-1.3.4.3.7 27.2.8 59.6.1 58.6.1 59.1 2.2 61.1 4.8 4.8 14.2 3.2 16.1-2.8.5-1.5.9-31.5.8-66.7-.1-58.8-.2-64.3-1.9-67.3-2.6-5-7-7.2-14.3-7.2-6.9 0-10.7 1.1-14 4.2-1.4 1.3-11.2 24.5-26 61.4-13 32.7-24 59.1-24.4 58.7-.4-.5-11.2-27.1-24.1-59.2C89.1 76.8 80.7 57 79 55.3c-3.5-3.5-6.1-4.3-14.1-4.3-6.7 0-7.1.1-11.2 3.9z"/></svg>