<?xml version="1.0" encoding="UTF-8" standalone="no"?>
<svg width="132px" height="132px" viewBox="0 0 132 132" version="1.1" xmlns="http://www.w3.org/2000/svg" xmlns:xlink="http://www.w3.org/1999/xlink">
    <!-- Generator: sketchtool 47 (45396) - http://www.bohemiancoding.com/sketch -->
    <title>E29D2122-7F43-4434-B202-34A9F2E2B1FE</title>
    <desc>Created with sketchtool.</desc>
    <defs>
        <rect id="path-1" x="0" y="0" width="124" height="124" rx="30"></rect>
        <rect id="path-2" x="0" y="0" width="124" height="124" rx="30"></rect>
    </defs>
    <g id="Symbols" stroke="none" stroke-width="1" fill="none" fill-rule="evenodd">
        <g id="Facebook" transform="translate(-6.000000, -6.000000)">
            <g transform="translate(10.000000, 10.000000)">
                <g id="Rectangle">
                    <use fill="#7FB3F5" fill-rule="evenodd" xlink:href="#path-1"></use>
                    <rect stroke="#385C84" stroke-width="4" x="-2" y="-2" width="128" height="128" rx="30"></rect>
                </g>
                <mask id="mask-3" fill="white">
                    <use xlink:href="#path-2"></use>
                </mask>
                <g id="Mask">
                    <use fill="#7FB3F5" fill-rule="evenodd" xlink:href="#path-2"></use>
                    <rect stroke="#385C84" stroke-width="4" x="-2" y="-2" width="128" height="128" rx="30"></rect>
                </g>
                <path d="M45.3009629,5.8630899 C71.772226,4.51272091 89.0469528,3.83753641 97.1251433,3.83753641 C106.530525,3.83753641 115.800877,-2.72549656 124.936198,-15.8515625 L-18.1510417,-15.8515625 L-18.4544271,127.132812 C-6.75547959,123.121466 0.822466202,112.650208 4.27941029,95.7190391 C5.59666642,76.0013646 6.39627735,59.041218 6.67824306,44.8385992 L7.0344347,46.9949044 C6.8839357,45.8468837 6.77240604,44.7485812 6.69984571,43.6999968 C6.73794593,41.5930983 6.76441319,39.5481692 6.77924746,37.5652097 C7.31323782,32.9784605 9.03052696,29.9013955 11.9311149,28.3340148 C15.1116993,27.7825634 18.9743774,25.6265295 22.3690545,22.2318524 C25.6996954,18.9012114 27.8379832,15.1200595 28.4382992,11.9746261 C30.4204503,8.6183271 34.7900885,6.64542375 41.5472137,6.05591607 C42.7123179,5.99566374 43.8607045,5.93663878 44.9923735,5.87884118 C45.1925222,5.87499602 45.3943604,5.8721295 45.5978877,5.87024166 L45.3009629,5.8630899 Z" id="Combined-Shape" fill="#ACD6FD" mask="url(#mask-3)"></path>
                <path d="M98.7244296,109.775157 C94.8334516,111.76426 90.0665969,113.071847 84.4238656,113.697917 C52.3760976,114.684462 31.6495226,115.177734 22.2441406,115.177734 C12.8387587,115.177734 5.96278212,123.049805 1.61621094,138.793945 L136.632812,136.132813 L140.451172,4.46679687 C124.741102,8.92773437 116.155816,14.9492188 114.695312,22.53125 C113.440235,52.0051172 112.43791,73.3058493 111.688336,86.4334463 C111.688336,90.9038561 110.992819,94.8330859 109.601784,98.2211358 C107.798346,99.3005707 105.854428,100.822328 103.990344,102.686412 C101.604209,105.072547 99.7789929,107.589494 98.7244296,109.775157 Z" id="Combined-Shape" fill="#5B94DC" mask="url(#mask-3)"></path>
                <path d="M108.708329,116.917258 C102.84245,120.391747 96.0677918,121.408142 90.8246911,121.697917 C79.1740453,122.341822 44.4084781,122.769503 30.5074807,123.856238 C21.2401491,124.580728 12.2528465,131.339586 3.54557292,144.132813 L146.632812,144.132813 L146.936198,1.1484375 C131.226128,5.609375 123.497083,17.0227504 123.749062,35.3885638 C122.375245,53.9213613 121.688336,72.1268467 121.688336,90.00502 C121.688336,97.4043046 120.225668,103.084173 117.862752,107.443676 C116.605712,107.922565 114.648321,109.351679 112.701628,111.298372 C110.499062,113.500938 108.959077,115.7172 108.708329,116.917258 Z" id="Combined-Shape" fill="#76ACF1" mask="url(#mask-3)"></path>
                <text id="f" mask="url(#mask-3)" font-family="Avenir-Black, Avenir" font-size="106" font-weight="700" fill="#FFFFFF">
                    <tspan x="42" y="101">f</tspan>
                </text>
            </g>
        </g>
    </g>
</svg>