<?xml version="1.0" encoding="UTF-8" standalone="no"?>
<svg width="132px" height="132px" viewBox="0 0 132 132" version="1.1" xmlns="http://www.w3.org/2000/svg" xmlns:xlink="http://www.w3.org/1999/xlink">
    <!-- Generator: sketchtool 47 (45396) - http://www.bohemiancoding.com/sketch -->
    <title>1756AA75-ACFF-4360-A873-B59A42525EE3</title>
    <desc>Created with sketchtool.</desc>
    <defs>
        <rect id="path-1" x="0" y="0" width="124" height="124" rx="30"></rect>
        <rect id="path-2" x="0" y="0" width="124" height="124" rx="30"></rect>
    </defs>
    <g id="Symbols" stroke="none" stroke-width="1" fill="none" fill-rule="evenodd">
        <g id="Instagram" transform="translate(-14.000000, -13.000000)">
            <g transform="translate(18.000000, 17.000000)">
                <g id="Rectangle">
                    <use fill="#7FB3F5" fill-rule="evenodd" xlink:href="#path-1"></use>
                    <rect stroke="#385C84" stroke-width="4" x="-2" y="-2" width="128" height="128" rx="30"></rect>
                </g>
                <mask id="mask-3" fill="white">
                    <use xlink:href="#path-2"></use>
                </mask>
                <use id="Mask" fill="#75B7E3" xlink:href="#path-2"></use>
                <path d="M45.3009629,5.8630899 C71.772226,4.51272091 89.0469528,3.83753641 97.1251433,3.83753641 C106.530525,3.83753641 115.800877,-2.72549656 124.936198,-15.8515625 L-18.1510417,-15.8515625 L-18.4544271,127.132812 C-6.75547959,123.121466 0.822466202,112.650208 4.27941029,95.7190391 C5.59666642,76.0013646 6.39627735,59.041218 6.67824306,44.8385992 L7.0344347,46.9949044 C6.8839357,45.8468837 6.77240604,44.7485812 6.69984571,43.6999968 C6.73794593,41.5930983 6.76441319,39.5481692 6.77924746,37.5652097 C7.31323782,32.9784605 9.03052696,29.9013955 11.9311149,28.3340148 C15.1116993,27.7825634 18.9743774,25.6265295 22.3690545,22.2318524 C25.6996954,18.9012114 27.8379832,15.1200595 28.4382992,11.9746261 C30.4204503,8.6183271 34.7900885,6.64542375 41.5472137,6.05591607 C42.7123179,5.99566374 43.8607045,5.93663878 44.9923735,5.87884118 C45.1925222,5.87499602 45.3943604,5.8721295 45.5978877,5.87024166 L45.3009629,5.8630899 Z" id="Combined-Shape" fill="#A5D4F6" mask="url(#mask-3)"></path>
                <path d="M98.7244296,109.775157 C94.8334516,111.76426 90.0665969,113.071847 84.4238656,113.697917 C52.3760976,114.684462 31.6495226,115.177734 22.2441406,115.177734 C12.8387587,115.177734 5.96278212,123.049805 1.61621094,138.793945 L136.632812,136.132813 L140.451172,4.46679687 C124.741102,8.92773437 116.155816,14.9492188 114.695312,22.53125 C113.440235,52.0051172 112.43791,73.3058493 111.688336,86.4334463 C111.688336,90.9038561 110.992819,94.8330859 109.601784,98.2211358 C107.798346,99.3005707 105.854428,100.822328 103.990344,102.686412 C101.604209,105.072547 99.7789929,107.589494 98.7244296,109.775157 Z" id="Combined-Shape" fill="#5A94BD" mask="url(#mask-3)"></path>
                <path d="M108.708329,116.917258 C102.84245,120.391747 96.0677918,121.408142 90.8246911,121.697917 C79.1740453,122.341822 44.4084781,122.769503 30.5074807,123.856238 C21.2401491,124.580728 12.2528465,131.339586 3.54557292,144.132813 L146.632812,144.132813 L146.936198,1.1484375 C131.226128,5.609375 123.497083,17.0227504 123.749062,35.3885638 C122.375245,53.9213613 121.688336,72.1268467 121.688336,90.00502 C121.688336,97.4043046 120.225668,103.084173 117.862752,107.443676 C116.605712,107.922565 114.648321,109.351679 112.701628,111.298372 C110.499062,113.500938 108.959077,115.7172 108.708329,116.917258 Z" id="Combined-Shape" fill="#6BA9D6" mask="url(#mask-3)"></path>
                <g id="Group" mask="url(#mask-3)">
                    <g transform="translate(27.000000, 27.000000)">
                        <path d="M11.108078,64.0421269 L11.1613627,64.0762488 C13.1844335,65.417354 15.4722123,66.2912408 17.8981075,66.6283208 C23.7033834,67.4349683 29.523771,67.8899888 35.3446581,67.9932355 C41.0957816,68.0519184 46.7366868,67.7287845 52.2679683,67.024084 C60.0019156,66.0387575 66.0169569,59.6247176 66.7296097,51.5699788 C67.4731421,46.0184828 67.8944034,40.4531329 67.9932358,34.8886118 C68.0519162,29.1453157 67.728796,23.5120935 67.0241259,17.9883482 C66.6803154,15.2932987 65.6732487,12.7652549 64.100498,10.5773618 L64.0421052,10.491513 C61.3841136,6.35689832 57.1150605,3.59344912 52.2679684,2.97591602 C46.7366868,2.27121555 41.0957816,1.94808164 35.3597013,2.0065544 C29.523771,2.11001115 23.7033834,2.56503169 17.8981075,3.37167919 C16.0189196,3.63279376 14.2212671,4.21601905 12.4779663,5.13413088 C7.29557837,7.56574014 3.69186114,12.3758948 2.97587412,17.9883481 C2.27120396,23.5120935 1.9480838,29.1453157 2.00655357,34.8735488 C2.11000658,40.7015673 2.56501071,46.5140653 3.37162958,52.3114754 C4.0484211,57.1757776 6.89602666,61.4378776 11.108078,64.0421269 Z" id="Combined-Shape" stroke="#FFFFFF" stroke-width="4" fill="none"></path>
                        <circle id="Oval" stroke="#FFFFFF" stroke-width="4" fill="none" cx="34.5" cy="36.5" r="15.5"></circle>
                        <circle id="Oval-2" stroke="none" fill="#FFFFFF" fill-rule="evenodd" cx="54.5" cy="15.5" r="4.5"></circle>
                    </g>
                </g>
            </g>
        </g>
    </g>
</svg>