<svg xmlns="http://www.w3.org/2000/svg" viewBox="0 0 216.71 216.72"><defs><style>.cls-1{fill:#170245;}.cls-2{fill:url(#linear-gradient);}.cls-3{fill:url(#linear-gradient-2);}.cls-4{fill:url(#linear-gradient-3);}.cls-5{opacity:0.2;}</style><linearGradient id="linear-gradient" x1="27.59" x2="31.85" y1="145.7" y2="145.7" gradientUnits="userSpaceOnUse"><stop offset="0" stop-color="#4f4f4f"/><stop offset="1" stop-color="#757575"/></linearGradient><linearGradient id="linear-gradient-2" x1="21.24" x2="208.8" y1="138" y2="138" gradientUnits="userSpaceOnUse"><stop offset="0" stop-color="#00f7ff"/><stop offset="1" stop-color="#0be"/></linearGradient><linearGradient id="linear-gradient-3" x2="208.51" y1="74.74" y2="74.74" gradientUnits="userSpaceOnUse"><stop offset="0" stop-color="#fc2000"/><stop offset="1" stop-color="#f09"/></linearGradient></defs><g id="Layer_2" data-name="Layer 2"><g id="Layer_2-2" data-name="Layer 2"><path d="M108.36 0A108.36 108.36 0 1 0 216.7 108.36 108.35 108.35 0 0 0 108.37 0zm0 195.5a87.14 87.14 0 1 1 87.13-87.14 87.13 87.13 0 0 1-87.2 87.13z" class="cls-1"/><path d="M31.85 150.18a77.32 77.32 0 0 1-4.26-9 98.16 98.16 0 0 0 4.2 9z" class="cls-2"/><path d="M208.8 149.37a104 104 0 0 1-7.06 14.4 146.85 146.85 0 0 0-17.92-11.93 87 87 0 0 1-75.5 43.65c-1.34 0-2.62 0-3.94-.1-1-.1-2-.1-3.1-.2l-3-.3c-.18 0-.37 0-.56-.1l-2.27-.3c-2.14-.4-4.22-.7-6.3-1.2l-3.66-.9c-1-.3-2-.5-2.9-.9a85.3 85.3 0 0 1-26.9-13.85 64.2 64.2 0 0 1-5.6-4.6c-1.9-1.66-3.6-3.37-5.3-5.2-.8-.8-1.6-1.7-2.4-2.57s-1.6-1.96-2.4-3c-.7-.83-1.3-1.63-1.9-2.44a88.48 88.48 0 0 1-6.3-9.8 98.16 98.16 0 0 1-4.3-9c-.47-1-.8-2.1-1.2-3.13-.6-1.65-1.2-3.35-1.7-5.06-.4-1.2-.7-2.4-1-3.6s-.6-2.46-.88-3.7a86.53 86.53 0 0 1-1.6-13.4c2-1.34 4-2.67 6-3.95a153.38 153.38 0 0 1 141-11.05l17.1-12.6 5.6-4.12c.84 2.56 1.6 5.12 2.22 7.77a20.14 20.14 0 0 1 .55 2.48 86.9 86.9 0 0 1 1.75 15.8v1.76a85.77 85.77 0 0 1-4.6 27.83z" class="cls-3"/><path d="M208.5 67.47l-17.62 13-5.6 4.12-17.1 12.6a152.93 152.93 0 0 0-140.92 11.1c-2 1.2-4 2.6-6 3.9-2.85 2-5.6 4-8.25 6.1-3.8 3.13-7.6 6.4-11.2 9.9A111.18 111.18 0 0 1 0 108.8a6.7 6.7 0 0 1 .05-1L13 98.23l9.86-7.3a87.25 87.25 0 0 1 161-26.17 149.4 149.4 0 0 0 17.5-11.6 102.54 102.54 0 0 1 7.15 14.3z" class="cls-4"/><path d="M195.43 106.57l-24.08 17.78L158.9 119a129.8 129.8 0 0 0-101.07 0 125.62 125.62 0 0 0-18.06 9.43c-1.7 1-3.4 2.18-5.17 3.36-2.46 1.7-4.7 3.4-6.78 5-.47.4-.94.7-1.42 1.2-.6-1.7-1.18-3.4-1.7-5.1-.38-1.2-.72-2.4-1-3.68s-.62-2.47-.85-3.7a86.53 86.53 0 0 1-1.6-13.4c2-1.35 4-2.68 6-3.96a153.38 153.38 0 0 1 140.93-11l17.1-12.6 5.6-4.13c.85 2.55 1.6 5.1 2.23 7.76a20.14 20.14 0 0 1 .6 2.47 86.9 86.9 0 0 1 1.8 15.9z" class="cls-5"/></g></g></svg>
