<svg xmlns="http://www.w3.org/2000/svg" viewBox="0 0 216.71 216.71">
  <defs>
    <style>
      .cls-1{fill:url(#linear-gradient);}.cls-2{fill:url(#linear-gradient-2);}.cls-3{fill:url(#linear-gradient-3);}.cls-4{fill:#170245;}.cls-5{opacity:0.2;}
    </style>
    <linearGradient id="linear-gradient" x1="27.59" x2="31.85" y1="145.26" y2="145.26" gradientUnits="userSpaceOnUse">
      <stop offset="0" stop-color="#4f4f4f"/>
      <stop offset="1" stop-color="#757575"/>
    </linearGradient>
    <linearGradient id="linear-gradient-2" x1="21.24" x2="208.8" y1="137.56" y2="137.56" gradientUnits="userSpaceOnUse">
      <stop offset="0" stop-color="#00f7ff"/>
      <stop offset="1" stop-color="#0be"/>
    </linearGradient>
    <linearGradient id="linear-gradient-3" x2="208.51" y1="74.3" y2="74.3" gradientUnits="userSpaceOnUse">
      <stop offset="0" stop-color="#fc2000"/>
      <stop offset="1" stop-color="#f09"/>
    </linearGradient>
  </defs>
  <g id="Layer_2" data-name="Layer 2">
    <g id="Layer_2-2" data-name="Layer 2">
      <path d="M31.85 149.74a77.32 77.32 0 0 1-4.26-9 98.16 98.16 0 0 0 4.26 9z" class="cls-1"/>
      <path d="M208.8 148.93a104 104 0 0 1-7.06 14.41 146.85 146.85 0 0 0-17.92-11.94 87 87 0 0 1-75.51 43.65c-1.33 0-2.61-.05-3.93-.09-1-.05-2-.1-3.09-.19l-3-.29c-.19 0-.38 0-.57-.09-.8 0-1.56-.19-2.27-.29-2.14-.33-4.22-.71-6.31-1.18-1.23-.29-2.46-.57-3.65-.9a28.28 28.28 0 0 1-2.89-.86 84.9 84.9 0 0 1-26.9-13.84 62.31 62.31 0 0 1-5.6-4.59c-1.85-1.66-3.6-3.37-5.31-5.22-.8-.8-1.56-1.7-2.37-2.56S40.81 163 40 162c-.67-.81-1.28-1.62-1.85-2.42a88.48 88.48 0 0 1-6.31-9.81 98.16 98.16 0 0 1-4.26-9c-.43-1-.81-2.09-1.19-3.13-.61-1.66-1.18-3.37-1.7-5.07-.38-1.19-.72-2.42-1-3.65s-.62-2.47-.85-3.7a86.68 86.68 0 0 1-1.61-13.41c2-1.33 4-2.66 6-3.94a153.38 153.38 0 0 1 140.95-11.08l17.11-12.61 5.59-4.12c.85 2.56 1.61 5.12 2.23 7.77a19.73 19.73 0 0 1 .57 2.47 86.89 86.89 0 0 1 1.75 15.83v1.75a85.81 85.81 0 0 1-4.6 27.83z" class="cls-2"/>
      <path d="M208.51 67l-17.63 13-5.59 4.12-17.11 12.67a152.93 152.93 0 0 0-140.92 11.09c-2 1.28-4 2.61-6 3.94-2.85 2-5.6 4-8.25 6.16-3.89 3.13-7.63 6.4-11.24 9.91A111.26 111.26 0 0 1 0 108.36a6.63 6.63 0 0 1 .05-1L13 97.79l9.86-7.3a87.25 87.25 0 0 1 161-26.17 150.66 150.66 0 0 0 17.49-11.61A103 103 0 0 1 208.51 67z" class="cls-3"/>
      <path d="M13 97.79L.05 107.36a108.31 108.31 0 0 1 201.26-54.65 150.66 150.66 0 0 1-17.49 11.61 87.23 87.23 0 0 0-161 26.17z" class="cls-4"/>
      <path d="M195.43 106.13l-24.08 17.77-12.46-5.31a129.91 129.91 0 0 0-101.06 0A125.69 125.69 0 0 0 39.77 128c-1.71 1-3.41 2.18-5.17 3.36-2.46 1.76-4.69 3.42-6.78 5.07-.47.38-.94.76-1.42 1.19-.61-1.66-1.18-3.37-1.7-5.07-.38-1.19-.72-2.42-1-3.65s-.62-2.47-.85-3.7a86.68 86.68 0 0 1-1.61-13.41c2-1.33 4-2.66 6-3.94a153.38 153.38 0 0 1 140.94-11.06l17.11-12.61 5.59-4.12c.85 2.56 1.61 5.12 2.23 7.77a19.73 19.73 0 0 1 .57 2.47 86.89 86.89 0 0 1 1.75 15.83z" class="cls-5"/>
      <path d="M183.82 151.4a146.85 146.85 0 0 1 17.92 11.94 108.39 108.39 0 0 1-200-35.45C5.36 124.38 9.1 121.11 13 118c2.65-2.13 5.4-4.17 8.25-6.16a86.68 86.68 0 0 0 1.61 13.41c.23 1.23.52 2.47.85 3.7s.62 2.46 1 3.65c.52 1.7 1.09 3.41 1.7 5.07.38 1 .76 2.09 1.19 3.13a98.16 98.16 0 0 0 4.26 9 88.48 88.48 0 0 0 6.31 9.81c.57.8 1.18 1.61 1.85 2.42.8 1 1.61 2 2.41 3s1.57 1.76 2.37 2.56c1.71 1.85 3.46 3.56 5.31 5.22a62.31 62.31 0 0 0 5.6 4.59 84.9 84.9 0 0 0 26.87 13.84 28.28 28.28 0 0 0 2.89.86c1.19.33 2.42.61 3.65.9 2.09.47 4.17.85 6.31 1.18.71.1 1.47.24 2.27.29.19.05.38.05.57.09l3 .29c1 .09 2 .14 3.09.19 1.32 0 2.6.09 3.93.09a87 87 0 0 0 75.53-43.73zm32.89-43.04a106.85 106.85 0 0 1-7.91 40.57l-17.92-13.22a85.81 85.81 0 0 0 4.6-27.83v-1.75a86.89 86.89 0 0 0-1.75-15.83 19.73 19.73 0 0 0-.57-2.47c-.62-2.65-1.38-5.21-2.23-7.77l17.63-13a107.16 107.16 0 0 1 8.15 41.3z" class="cls-4"/>
    </g>
  </g>
</svg>
