<?xml version="1.0" encoding="UTF-8" standalone="no"?>
<svg width="168px" height="132px" viewBox="0 0 168 132" version="1.1" xmlns="http://www.w3.org/2000/svg" xmlns:xlink="http://www.w3.org/1999/xlink">
    <!-- Generator: sketchtool 47 (45396) - http://www.bohemiancoding.com/sketch -->
    <title>A4DEA608-FC37-4BC7-9660-67D04D3D3D09</title>
    <desc>Created with sketchtool.</desc>
    <defs>
        <rect id="path-1" x="0" y="0" width="160" height="124" rx="30"></rect>
        <rect id="path-2" x="0" y="0" width="160" height="124" rx="30"></rect>
    </defs>
    <g id="Symbols" stroke="none" stroke-width="1" fill="none" fill-rule="evenodd">
        <g id="YouTube" transform="translate(-10.000000, -15.000000)">
            <g transform="translate(14.000000, 19.000000)">
                <g id="Rectangle">
                    <use fill="#7FB3F5" fill-rule="evenodd" xlink:href="#path-1"></use>
                    <rect stroke="#385C84" stroke-width="4" x="-2" y="-2" width="164" height="128" rx="30"></rect>
                </g>
                <mask id="mask-3" fill="white">
                    <use xlink:href="#path-2"></use>
                </mask>
                <g id="Mask">
                    <use fill="#F5F5F5" fill-rule="evenodd" xlink:href="#path-2"></use>
                    <rect stroke="#656565" stroke-width="4" x="-2" y="-2" width="164" height="128" rx="30"></rect>
                </g>
                <path d="M45.3009629,5.8630899 C71.772226,4.51272091 89.0469528,3.83753641 97.1251433,3.83753641 C106.530525,3.83753641 115.800877,-2.72549656 124.936198,-15.8515625 L-18.1510417,-15.8515625 L-18.4544271,127.132812 C-6.75547959,123.121466 0.822466202,112.650208 4.27941029,95.7190391 C5.59666642,76.0013646 6.39627735,59.041218 6.67824306,44.8385992 L7.0344347,46.9949044 C6.8839357,45.8468837 6.77240604,44.7485812 6.69984571,43.6999968 C6.73794593,41.5930983 6.76441319,39.5481692 6.77924746,37.5652097 C7.31323782,32.9784605 9.03052696,29.9013955 11.9311149,28.3340148 C15.1116993,27.7825634 18.9743774,25.6265295 22.3690545,22.2318524 C25.6996954,18.9012114 27.8379832,15.1200595 28.4382992,11.9746261 C30.4204503,8.6183271 34.7900885,6.64542375 41.5472137,6.05591607 C42.7123179,5.99566374 43.8607045,5.93663878 44.9923735,5.87884118 C45.1925222,5.87499602 45.3943604,5.8721295 45.5978877,5.87024166 L45.3009629,5.8630899 Z" id="Combined-Shape" fill="#FFFFFF" mask="url(#mask-3)"></path>
                <path d="M134.72443,109.775157 C130.833452,111.76426 126.066597,113.071847 120.423866,113.697917 C68.3760976,114.684462 37.6495226,115.177734 28.2441406,115.177734 C18.8387587,115.177734 11.9627821,123.049805 7.61621094,138.793945 L172.632812,136.132813 L176.451172,4.46679687 C160.741102,8.92773437 152.155816,14.9492188 150.695312,22.53125 C149.440235,52.0051172 148.43791,73.3058493 147.688336,86.4334463 C147.688336,90.9038561 146.992819,94.8330859 145.601784,98.2211358 C143.798346,99.3005707 141.854428,100.822328 139.990344,102.686412 C137.604209,105.072547 135.778993,107.589494 134.72443,109.775157 Z" id="Combined-Shape" fill="#D8D8D8" mask="url(#mask-3)"></path>
                <path d="M144.708329,116.917258 C138.84245,120.391747 132.067792,121.408142 126.824691,121.697917 C115.174045,122.341822 40.4084781,122.769503 26.5074807,123.856238 C17.2401491,124.580728 8.25284652,131.339586 -0.454427083,144.132813 L182.632812,144.132813 L182.936198,1.1484375 C167.226128,5.609375 159.497083,17.0227504 159.749062,35.3885638 C158.375245,53.9213613 157.688336,72.1268467 157.688336,90.00502 C157.688336,97.4043046 156.225668,103.084173 153.862752,107.443676 C152.605712,107.922565 150.648321,109.351679 148.701628,111.298372 C146.499062,113.500938 144.959077,115.7172 144.708329,116.917258 Z" id="Combined-Shape" fill="#E8E8E8" mask="url(#mask-3)"></path>
                <g id="Group-2" mask="url(#mask-3)">
                    <g transform="translate(30.000000, 28.000000)">
                        <path d="M17.2354881,3.31137167 L17.2354881,3.31137167 C28.223093,1.3620824 39.210698,0.387437762 50.198303,0.387437762 C61.1859079,0.387437762 72.1735129,1.3620824 83.1611179,3.31137167 L83.1611179,3.31137167 L83.1611179,3.31137167 C91.5624074,4.21493892 98.2568684,10.7455555 99.3682921,19.1218814 L99.4976661,20.0969182 C99.9333074,24.8979454 100.151128,29.6989727 100.151128,34.5 C100.151128,39.3010273 99.9333074,44.1020546 99.4976661,48.9030818 L99.3010638,50.3714938 L99.3010638,50.3714938 C98.2253247,58.4061273 91.8605554,64.7012959 83.8145798,65.6886283 L83.8145798,65.6886283 C72.705727,67.6379176 61.5968741,68.6125622 50.4880213,68.6125622 C39.3791685,68.6125622 28.2703156,67.6379176 17.1614628,65.6886283 L17.1614628,65.6886283 L17.1614628,65.6886283 C9.0347568,64.6927761 2.51331861,58.5029512 1.09508788,50.4392242 L0.824914504,48.9030818 C0.389273216,44.1020546 0.171452572,39.3010273 0.171452572,34.5 C0.171452572,29.6989727 0.389273216,24.8979454 0.824914504,20.0969182 L1.10598599,18.4843412 L1.10598599,18.4843412 C2.51424523,10.4048076 9.08504326,4.22367956 17.2354881,3.31137167 Z" id="Rectangle-4" fill="#F85E5E"></path>
                        <path d="M74.8704465,34.8705867 L74.8940187,34.8705868 C74.9090031,33.9497028 74.0343626,32.9433798 72.2700971,31.8516179 C62.3083129,26.5950907 49.8176263,21.2058625 36.1145915,17.8710846 C33.0568053,17.289002 31.46608,18.3292988 31.3424156,20.9919749 C30.7582038,24.7741303 30.4842257,29.4003094 30.5204813,34.8705123 L52.6954633,34.8705495 L30.4969079,34.8705868 C30.4606523,40.3407897 30.7346304,44.9669688 31.3188422,48.7491242 C31.4425066,51.4118003 33.0332319,52.452097 36.0910181,51.8700145 C49.794053,48.5352366 62.2847395,43.1460084 72.2465237,37.8894811 C74.0107417,36.7977486 74.8853826,35.7914505 74.8704465,34.8705867 Z" id="Combined-Shape" fill="#FFFFFF"></path>
                    </g>
                </g>
            </g>
        </g>
    </g>
</svg>